<svg width="66" height="55" viewBox="0 0 66 55" fill="none" xmlns="http://www.w3.org/2000/svg">
<path d="M58.9095 28.5518C58.9183 28.6857 58.8984 28.8201 58.8511 28.9457C58.8037 29.0714 58.7301 29.1856 58.6352 29.2805C58.5403 29.3755 58.4261 29.449 58.3004 29.4963C58.1748 29.5437 58.0404 29.5636 57.9064 29.5548H34.537C34.4036 29.5638 34.2696 29.5439 34.1445 29.4965C34.0194 29.4491 33.9059 29.3753 33.8119 29.2801C33.7178 29.1849 33.6454 29.0706 33.5995 28.9449C33.5535 28.8192 33.5353 28.6851 33.5459 28.5518V26.3545C33.5371 26.2221 33.5567 26.0893 33.6034 25.965C33.6501 25.8408 33.7228 25.728 33.8167 25.6341C33.9105 25.5402 34.0234 25.4676 34.1476 25.4209C34.2718 25.3741 34.4046 25.3546 34.537 25.3634H57.7034C57.8363 25.3547 57.9696 25.3744 58.0944 25.421C58.2192 25.4676 58.3327 25.5401 58.4275 25.6337C58.5222 25.7273 58.5961 25.84 58.6442 25.9642C58.6923 26.0884 58.7135 26.2215 58.7065 26.3545L58.9095 28.5518Z" fill="#E74C3D"/>
<path d="M50.5134 22.3188C50.522 22.4518 50.5023 22.5851 50.4558 22.7099C50.4091 22.8347 50.3367 22.9482 50.243 23.0429C50.1494 23.1377 50.0367 23.2116 49.9125 23.2596C49.7882 23.3077 49.6553 23.329 49.5222 23.322H30.5473C30.4137 23.3288 30.2803 23.3075 30.1555 23.2595C30.0307 23.2116 29.9173 23.138 29.8228 23.0434C29.7282 22.9489 29.6546 22.8355 29.6066 22.7107C29.5586 22.5859 29.5373 22.4524 29.5442 22.3188V20.1694C29.5373 20.0359 29.5586 19.9024 29.6066 19.7776C29.6546 19.6528 29.7282 19.5394 29.8228 19.4449C29.9173 19.3503 30.0307 19.2767 30.1555 19.2287C30.2803 19.1807 30.4137 19.1595 30.5473 19.1664H49.4983C49.6314 19.1593 49.7644 19.1806 49.8886 19.2286C50.0129 19.2767 50.1255 19.3506 50.2192 19.4454C50.3127 19.5401 50.3853 19.6536 50.4318 19.7784C50.4785 19.9032 50.4981 20.0365 50.4895 20.1694L50.5134 22.3188Z" fill="#E74C3D"/>
<path d="M65.2982 34.9405C65.307 35.0745 65.2871 35.2089 65.2398 35.3345C65.1924 35.4602 65.1189 35.5743 65.0239 35.6693C64.929 35.7642 64.8149 35.8378 64.6891 35.8851C64.5635 35.9324 64.4291 35.9524 64.2952 35.9436H38.9316C38.798 35.9526 38.6641 35.9327 38.5391 35.8853C38.4139 35.8379 38.3004 35.7641 38.2063 35.6689C38.1123 35.5737 38.0399 35.4594 37.994 35.3337C37.9481 35.208 37.9299 35.0739 37.9404 34.9405V32.7552C37.9299 32.6218 37.9481 32.4877 37.994 32.362C38.0399 32.2363 38.1123 32.1219 38.2063 32.0268C38.3004 31.9316 38.4139 31.8578 38.5391 31.8104C38.6641 31.763 38.798 31.7432 38.9316 31.7521H64.2952C64.4291 31.7434 64.5635 31.7633 64.6891 31.8105C64.8149 31.8579 64.929 31.9315 65.0239 32.0264C65.1189 32.1214 65.1924 32.2355 65.2398 32.3612C65.2871 32.4869 65.307 32.6212 65.2982 32.7552V34.9405Z" fill="#E74C3D"/>
<path d="M65.2982 41.3411C65.3052 41.4742 65.284 41.6071 65.2359 41.7314C65.1878 41.8556 65.114 41.9683 65.0192 42.0619C64.9245 42.1555 64.8109 42.228 64.6861 42.2746C64.5613 42.3212 64.428 42.3408 64.2952 42.3323H38.9316C38.7992 42.3411 38.6663 42.3214 38.5421 42.2748C38.4178 42.2281 38.3051 42.1553 38.2112 42.0615C38.1174 41.9676 38.0446 41.8548 37.9979 41.7306C37.9512 41.6063 37.9316 41.4735 37.9404 41.3411V39.1439C37.9299 39.0105 37.9481 38.8764 37.994 38.7507C38.0399 38.625 38.1123 38.5106 38.2063 38.4154C38.3004 38.3203 38.4139 38.2465 38.5391 38.1991C38.6641 38.1517 38.798 38.1318 38.9316 38.1408H64.2952C64.4291 38.132 64.5635 38.152 64.6891 38.1992C64.8149 38.2465 64.929 38.3201 65.0239 38.4151C65.1189 38.5101 65.1924 38.6242 65.2398 38.7498C65.2871 38.8756 65.307 39.0099 65.2982 39.1439V41.3411Z" fill="#E74C3D"/>
<path d="M58.9086 47.5268C58.9154 47.6604 58.8941 47.7938 58.8461 47.9186C58.7982 48.0434 58.7245 48.1568 58.6299 48.2513C58.5355 48.3459 58.4221 48.4195 58.2973 48.4675C58.1725 48.5155 58.039 48.5368 57.9054 48.5299H34.5361C34.4031 48.5369 34.27 48.5157 34.1458 48.4676C34.0216 48.4195 33.9089 48.3457 33.8153 48.2509C33.7217 48.1561 33.6492 48.0426 33.6026 47.9179C33.556 47.793 33.5363 47.6598 33.545 47.5268V45.3296C33.5363 45.1967 33.556 45.0634 33.6026 44.9386C33.6492 44.8138 33.7217 44.7003 33.8153 44.6055C33.9089 44.5107 34.0216 44.4369 34.1458 44.3888C34.27 44.3407 34.4031 44.3195 34.5361 44.3265H57.7024C57.836 44.3197 57.9695 44.3409 58.0943 44.3889C58.2191 44.4369 58.3324 44.5105 58.427 44.6051C58.5215 44.6996 58.5952 44.813 58.6432 44.9378C58.6912 45.0626 58.7124 45.1961 58.7055 45.3296L58.9086 47.5268Z" fill="#E74C3D"/>
<path d="M50.5134 53.915C50.5221 54.048 50.5024 54.1812 50.4558 54.3061C50.4092 54.4308 50.3367 54.5443 50.2431 54.6391C50.1495 54.7339 50.0368 54.8078 49.9126 54.8558C49.7883 54.9039 49.6553 54.9251 49.5223 54.9181H30.5474C30.4138 54.925 30.2804 54.9037 30.1556 54.8557C30.0308 54.8078 29.9174 54.7341 29.8229 54.6395C29.7283 54.545 29.6546 54.4316 29.6067 54.3068C29.5587 54.182 29.5374 54.0486 29.5443 53.915V51.7178C29.5373 51.5848 29.5585 51.4517 29.6066 51.3276C29.6546 51.2033 29.7285 51.0907 29.8233 50.997C29.9181 50.9034 30.0316 50.8309 30.1564 50.7843C30.2812 50.7377 30.4145 50.7181 30.5474 50.7267H49.4984C49.6308 50.7179 49.7636 50.7375 49.8879 50.7841C50.0121 50.8309 50.1249 50.9036 50.2188 50.9974C50.3126 51.0913 50.3854 51.2041 50.4321 51.3283C50.4787 51.4526 50.4984 51.5854 50.4896 51.7178L50.5134 53.915Z" fill="#E74C3D"/>
<path d="M14.5716 3.21208C14.5646 3.34511 14.5858 3.47813 14.6339 3.60236C14.682 3.72659 14.7559 3.83924 14.8507 3.93287C14.9454 4.02651 15.0589 4.09901 15.1837 4.1456C15.3085 4.1922 15.4418 4.21183 15.5747 4.20322H34.5377C34.6711 4.21382 34.8052 4.19555 34.9309 4.14965C35.0566 4.10376 35.1709 4.03132 35.2661 3.93726C35.3613 3.84321 35.4351 3.72976 35.4825 3.60461C35.5299 3.47948 35.5498 3.34559 35.5408 3.21208V1.01486C35.5496 0.880861 35.5297 0.746534 35.4823 0.620848C35.435 0.495165 35.3614 0.381027 35.2665 0.286071C35.1715 0.191114 35.0574 0.117524 34.9317 0.0702232C34.806 0.0229214 34.6717 0.00300048 34.5377 0.0117876H15.5747C15.4411 0.0049258 15.3077 0.0261585 15.1829 0.0741405C15.0581 0.122123 14.9447 0.195767 14.8502 0.290316C14.7556 0.384865 14.682 0.49821 14.634 0.623016C14.586 0.747821 14.5647 0.881325 14.5716 1.01486V3.21208Z" fill="#E74C3D"/>
<path d="M6.38877 9.5883C6.37997 9.72078 6.39957 9.85353 6.44627 9.97778C6.49296 10.102 6.56567 10.2149 6.65953 10.3087C6.75338 10.4026 6.8662 10.4753 6.99044 10.522C7.11466 10.5687 7.24749 10.5882 7.37989 10.5794H30.5463C30.6792 10.5881 30.8125 10.5685 30.9373 10.5218C31.062 10.4753 31.1756 10.4027 31.2704 10.3091C31.3651 10.2155 31.439 10.1029 31.487 9.97862C31.5352 9.85438 31.5563 9.72134 31.5494 9.5883V7.39107C31.5562 7.25754 31.535 7.12408 31.487 6.99928C31.439 6.87447 31.3653 6.76112 31.2708 6.66658C31.1762 6.57203 31.0629 6.49839 30.9381 6.45041C30.8133 6.40242 30.6798 6.38117 30.5463 6.38803H7.37989C7.24686 6.38101 7.11389 6.40224 6.98963 6.45033C6.8654 6.49842 6.75275 6.57227 6.65912 6.66703C6.56548 6.76179 6.49298 6.87532 6.44639 7.00012C6.39979 7.12492 6.38015 7.25817 6.38877 7.39107V9.5883Z" fill="#E74C3D"/>
<path d="M0.00204998 15.977C-0.00675015 16.1094 0.01285 16.2422 0.0595469 16.3664C0.106244 16.4907 0.178955 16.6035 0.272808 16.6974C0.366659 16.7912 0.479482 16.8639 0.603722 16.9106C0.727964 16.9574 0.86075 16.9769 0.993178 16.9681H26.3568C26.4892 16.9769 26.622 16.9574 26.7462 16.9106C26.8704 16.8639 26.9833 16.7912 27.0771 16.6974C27.171 16.6035 27.2437 16.4907 27.2904 16.3664C27.3371 16.2422 27.3567 16.1094 27.3479 15.977V13.7798C27.3565 13.6468 27.3369 13.5136 27.2902 13.3888C27.2437 13.264 27.1712 13.1504 27.0776 13.0557C26.9839 12.961 26.8713 12.8871 26.747 12.839C26.6228 12.7909 26.4898 12.7697 26.3568 12.7767H0.993178C0.860152 12.7697 0.727134 12.7909 0.602902 12.839C0.478667 12.8871 0.366031 12.961 0.272397 13.0557C0.178764 13.1504 0.106263 13.264 0.0596653 13.3888C0.0130679 13.5136 -0.00656681 13.6468 0.00204998 13.7798V15.977Z" fill="#E74C3D"/>
<path d="M0.00197571 22.3188C-0.00664109 22.4518 0.0129936 22.5851 0.0595911 22.7099C0.106188 22.8347 0.17869 22.9482 0.272323 23.0429C0.365956 23.1377 0.478592 23.2116 0.602828 23.2596C0.727064 23.3077 0.860075 23.329 0.993107 23.322H26.3567C26.4898 23.329 26.6227 23.3077 26.747 23.2596C26.8712 23.2116 26.9839 23.1377 27.0775 23.0429C27.1711 22.9482 27.2436 22.8347 27.2902 22.7099C27.3368 22.5851 27.3564 22.4518 27.3478 22.3188V20.1694C27.3564 20.0365 27.3368 19.9032 27.2902 19.7784C27.2436 19.6536 27.1711 19.5401 27.0775 19.4454C26.9839 19.3506 26.8712 19.2767 26.747 19.2286C26.6227 19.1806 26.4898 19.1593 26.3567 19.1664H0.993107C0.860075 19.1593 0.727064 19.1806 0.602828 19.2286C0.478592 19.2767 0.365956 19.3506 0.272323 19.4454C0.17869 19.5401 0.106188 19.6536 0.0595911 19.7784C0.0129936 19.9032 -0.00664109 20.0365 0.00197571 20.1694V22.3188Z" fill="#E74C3D"/>
<path d="M6.38965 28.5518C6.37904 28.6851 6.39732 28.8192 6.44321 28.9449C6.48911 29.0706 6.56154 29.1849 6.65559 29.2801C6.74964 29.3753 6.86311 29.4491 6.98825 29.4965C7.11339 29.5439 7.24727 29.5638 7.38081 29.5548H30.5471C30.6811 29.5636 30.8154 29.5437 30.9412 29.4963C31.0668 29.449 31.181 29.3755 31.2759 29.2805C31.3709 29.1856 31.4445 29.0714 31.4917 28.9457C31.5391 28.8201 31.559 28.6857 31.5502 28.5518V26.3545C31.5572 26.2215 31.536 26.0884 31.4879 25.9642C31.4398 25.84 31.366 25.7273 31.2712 25.6337C31.1764 25.5401 31.0629 25.4676 30.9381 25.421C30.8133 25.3744 30.6801 25.3547 30.5471 25.3634H7.38081C7.24833 25.3546 7.11557 25.3741 6.99131 25.4209C6.86708 25.4676 6.75426 25.5402 6.6604 25.6341C6.56655 25.728 6.49384 25.8408 6.44714 25.965C6.40045 26.0893 6.38084 26.2221 6.38965 26.3545V28.5518Z" fill="#E74C3D"/>
<path d="M14.5723 34.9404C14.5635 35.0744 14.5835 35.2087 14.6308 35.3344C14.6781 35.4601 14.7517 35.5742 14.8466 35.6692C14.9416 35.7642 15.0557 35.8378 15.1814 35.885C15.3071 35.9324 15.4414 35.9523 15.5754 35.9435H34.5384C34.6724 35.9523 34.8067 35.9324 34.9324 35.885C35.0581 35.8378 35.1723 35.7642 35.2672 35.6692C35.3621 35.5742 35.4357 35.4601 35.483 35.3344C35.5304 35.2087 35.5503 35.0744 35.5415 34.9404V32.7551C35.5503 32.6211 35.5304 32.4868 35.483 32.3611C35.4357 32.2354 35.3621 32.1213 35.2672 32.0263C35.1723 31.9314 35.0581 31.8578 34.9324 31.8105C34.8067 31.7632 34.6724 31.7432 34.5384 31.752H15.5754C15.4414 31.7432 15.3071 31.7632 15.1814 31.8105C15.0557 31.8578 14.9416 31.9314 14.8466 32.0263C14.7517 32.1213 14.6781 32.2354 14.6308 32.3611C14.5835 32.4868 14.5635 32.6211 14.5723 32.7551V34.9404Z" fill="#E74C3D"/>
</svg>
