{
	"asset":{
		"generator":"Khronos glTF Blender I/O v3.6.28",
		"version":"2.0"
	},
	"extensionsUsed":[
		"KHR_materials_emissive_strength"
	],
	"scene":0,
	"scenes":[
		{
			"name":"Scene",
			"nodes":[
				0,
				1,
				2,
				3,
				5,
				6,
				7,
				8
			]
		}
	],
	"nodes":[
		{
			"mesh":0,
			"name":"Box.001",
			"scale":[
				99.42626953125,
				99.42626953125,
				99.42626953125
			],
			"translation":[
				-0.5352311134338379,
				38.72060012817383,
				6.60453987121582
			]
		},
		{
			"mesh":1,
			"name":"Screen.001",
			"scale":[
				99.42626953125,
				99.42626953125,
				99.42626953125
			],
			"translation":[
				-0.2310647964477539,
				49.95189666748047,
				-30.591163635253906
			]
		},
		{
			"mesh":2,
			"name":"MainButtonHolder.001",
			"scale":[
				-4.763579368591309,
				-2.124699354171753,
				-7.321330547332764
			],
			"translation":[
				-23.733314514160156,
				19.892620086669922,
				-28.432035446166992
			]
		},
		{
			"mesh":3,
			"name":"MainButton.001",
			"scale":[
				-2.5984795093536377,
				-1.0880091190338135,
				-7.107842922210693
			],
			"translation":[
				-23.887897491455078,
				19.959346771240234,
				-29.487091064453125
			]
		},
		{
			"mesh":4,
			"name":"Correctbottom.001",
			"scale":[
				2.520738124847412,
				1.5722771883010864,
				26.290367126464844
			],
			"translation":[
				-1.0085432529449463,
				-0.5517239570617676,
				27.369047164916992
			]
		},
		{
			"children":[
				4
			],
			"mesh":5,
			"name":"BottomFront.001",
			"scale":[
				11.865682601928711,
				3.5032575130462646,
				1.130545735359192
			],
			"translation":[
				11.664369583129883,
				9.035324096679688,
				-24.309724807739258
			]
		},
		{
			"mesh":6,
			"name":"HACKTIME4.001",
			"rotation":[
				0,
				-0.7071068286895752,
				0.7071068286895752,
				3.090862321641907e-08
			],
			"scale":[
				46.93235397338867,
				44.60740280151367,
				44.60740280151367
			],
			"translation":[
				-2.3010101318359375,
				50.214603424072266,
				-37.14301300048828
			]
		},
		{
			"mesh":7,
			"name":"Plane.001",
			"rotation":[
				0.70710688829422,
				0,
				0,
				0.7071066498756409
			],
			"scale":[
				21.85038185119629,
				28.176481246948242,
				21.73161506652832
			],
			"translation":[
				0.0996561050415039,
				50.44226837158203,
				-36.64028549194336
			]
		},
		{
			"mesh":8,
			"name":"Cube",
			"rotation":[
				0,
				1,
				0,
				0
			],
			"scale":[
				-0.7201890349388123,
				-0.3042552173137665,
				-0.519575297832489
			],
			"translation":[
				2.8635730743408203,
				8.39539909362793,
				-24.187332153320312
			]
		}
	],
	"materials":[
		{
			"doubleSided":true,
			"name":"body.006",
			"pbrMetallicRoughness":{
				"baseColorFactor":[
					1,
					0.9822497963905334,
					0.6307573914527893,
					1
				],
				"metallicFactor":0,
				"roughnessFactor":0.7123287916183472
			}
		},
		{
			"doubleSided":true,
			"name":"redButton.005",
			"pbrMetallicRoughness":{
				"baseColorFactor":[
					0.8000000715255737,
					0.005611273925751448,
					0.01137510035187006,
					1
				],
				"metallicFactor":0,
				"roughnessFactor":0.5
			}
		},
		{
			"alphaMode":"BLEND",
			"doubleSided":true,
			"emissiveFactor":[
				1,
				1,
				1
			],
			"emissiveTexture":{
				"index":0
			},
			"extensions":{
				"KHR_materials_emissive_strength":{
					"emissiveStrength":1.2000000476837158
				}
			},
			"name":"Asset 1.005",
			"pbrMetallicRoughness":{
				"baseColorTexture":{
					"index":1
				},
				"metallicFactor":0,
				"roughnessFactor":0
			}
		},
		{
			"doubleSided":true,
			"name":"Material.007",
			"pbrMetallicRoughness":{
				"baseColorFactor":[
					0.004076798912137747,
					0.010276012122631073,
					0.003140037879347801,
					1
				],
				"metallicFactor":0,
				"roughnessFactor":0
			}
		},
		{
			"doubleSided":true,
			"name":"Material.008",
			"pbrMetallicRoughness":{
				"baseColorFactor":[
					0.040821805596351624,
					0.395641028881073,
					0.8004242181777954,
					1
				],
				"metallicFactor":0,
				"roughnessFactor":0.5
			}
		}
	],
	"meshes":[
		{
			"name":"Cube.002",
			"primitives":[
				{
					"attributes":{
						"POSITION":0,
						"NORMAL":1,
						"TEXCOORD_0":2
					},
					"indices":3,
					"material":0
				}
			]
		},
		{
			"name":"Cube.004",
			"primitives":[
				{
					"attributes":{
						"POSITION":4,
						"NORMAL":5,
						"TEXCOORD_0":6
					},
					"indices":7,
					"material":0
				}
			]
		},
		{
			"name":"Cube.005",
			"primitives":[
				{
					"attributes":{
						"POSITION":8,
						"NORMAL":9,
						"TEXCOORD_0":10
					},
					"indices":11,
					"material":0
				}
			]
		},
		{
			"name":"Cube.006",
			"primitives":[
				{
					"attributes":{
						"POSITION":12,
						"NORMAL":13,
						"TEXCOORD_0":14
					},
					"indices":15,
					"material":1
				}
			]
		},
		{
			"name":"Cube.009",
			"primitives":[
				{
					"attributes":{
						"POSITION":16,
						"NORMAL":17,
						"TEXCOORD_0":18
					},
					"indices":19,
					"material":0
				}
			]
		},
		{
			"name":"Cube.007",
			"primitives":[
				{
					"attributes":{
						"POSITION":20,
						"NORMAL":21,
						"TEXCOORD_0":22
					},
					"indices":23,
					"material":0
				}
			]
		},
		{
			"name":"HACKTIME4.001",
			"primitives":[
				{
					"attributes":{
						"POSITION":24,
						"NORMAL":25,
						"TEXCOORD_0":26
					},
					"indices":27,
					"material":2
				}
			]
		},
		{
			"name":"Plane.001",
			"primitives":[
				{
					"attributes":{
						"POSITION":28,
						"NORMAL":29,
						"TEXCOORD_0":30
					},
					"indices":31,
					"material":3
				}
			]
		},
		{
			"name":"Cube.010",
			"primitives":[
				{
					"attributes":{
						"POSITION":32,
						"NORMAL":33,
						"TEXCOORD_0":34
					},
					"indices":15,
					"material":4
				}
			]
		}
	],
	"textures":[
		{
			"sampler":0,
			"source":0
		},
		{
			"sampler":0,
			"source":0
		}
	],
	"images":[
		{
			"mimeType":"image/png",
			"name":"BAKED",
			"uri":"BAKED.png"
		}
	],
	"accessors":[
		{
			"bufferView":0,
			"componentType":5126,
			"count":80795,
			"max":[
				0.30000004172325134,
				0.38444334268569946,
				0.30000001192092896
			],
			"min":[
				-0.30000001192092896,
				-0.26135188341140747,
				-0.30000001192092896
			],
			"type":"VEC3"
		},
		{
			"bufferView":1,
			"componentType":5126,
			"count":80795,
			"type":"VEC3"
		},
		{
			"bufferView":2,
			"componentType":5126,
			"count":80795,
			"type":"VEC2"
		},
		{
			"bufferView":3,
			"componentType":5125,
			"count":128604,
			"type":"SCALAR"
		},
		{
			"bufferView":4,
			"componentType":5126,
			"count":2446,
			"max":[
				0.30000001192092896,
				0.2703056037425995,
				0.06728819012641907
			],
			"min":[
				-0.30000001192092896,
				-0.2703056037425995,
				-0.07474998384714127
			],
			"type":"VEC3"
		},
		{
			"bufferView":5,
			"componentType":5126,
			"count":2446,
			"type":"VEC3"
		},
		{
			"bufferView":6,
			"componentType":5126,
			"count":2446,
			"type":"VEC2"
		},
		{
			"bufferView":7,
			"componentType":5123,
			"count":3660,
			"type":"SCALAR"
		},
		{
			"bufferView":8,
			"componentType":5126,
			"count":56,
			"max":[
				1.0000004768371582,
				1,
				0.999999463558197
			],
			"min":[
				-0.9999995231628418,
				-1,
				-1.0000004768371582
			],
			"type":"VEC3"
		},
		{
			"bufferView":9,
			"componentType":5126,
			"count":56,
			"type":"VEC3"
		},
		{
			"bufferView":10,
			"componentType":5126,
			"count":56,
			"type":"VEC2"
		},
		{
			"bufferView":11,
			"componentType":5123,
			"count":108,
			"type":"SCALAR"
		},
		{
			"bufferView":12,
			"componentType":5126,
			"count":24,
			"max":[
				1,
				1,
				1
			],
			"min":[
				-1,
				-1,
				-1
			],
			"type":"VEC3"
		},
		{
			"bufferView":13,
			"componentType":5126,
			"count":24,
			"type":"VEC3"
		},
		{
			"bufferView":14,
			"componentType":5126,
			"count":24,
			"type":"VEC2"
		},
		{
			"bufferView":15,
			"componentType":5123,
			"count":36,
			"type":"SCALAR"
		},
		{
			"bufferView":16,
			"componentType":5126,
			"count":66796,
			"max":[
				1.000000238418579,
				0.9999999403953552,
				1.0000004768371582
			],
			"min":[
				-1.000000238418579,
				-1,
				-1
			],
			"type":"VEC3"
		},
		{
			"bufferView":17,
			"componentType":5126,
			"count":66796,
			"type":"VEC3"
		},
		{
			"bufferView":18,
			"componentType":5126,
			"count":66796,
			"type":"VEC2"
		},
		{
			"bufferView":19,
			"componentType":5125,
			"count":112074,
			"type":"SCALAR"
		},
		{
			"bufferView":20,
			"componentType":5126,
			"count":430,
			"max":[
				0.9999955892562866,
				0.9999998807907104,
				0.9999994039535522
			],
			"min":[
				-1.0000051259994507,
				-1.0000008344650269,
				-1.000001311302185
			],
			"type":"VEC3"
		},
		{
			"bufferView":21,
			"componentType":5126,
			"count":430,
			"type":"VEC3"
		},
		{
			"bufferView":22,
			"componentType":5126,
			"count":430,
			"type":"VEC2"
		},
		{
			"bufferView":23,
			"componentType":5123,
			"count":1170,
			"type":"SCALAR"
		},
		{
			"bufferView":24,
			"componentType":5126,
			"count":132,
			"max":[
				0.43827271461486816,
				0,
				0.5
			],
			"min":[
				-0.5356666445732117,
				0,
				-0.5
			],
			"type":"VEC3"
		},
		{
			"bufferView":25,
			"componentType":5126,
			"count":132,
			"type":"VEC3"
		},
		{
			"bufferView":26,
			"componentType":5126,
			"count":132,
			"type":"VEC2"
		},
		{
			"bufferView":27,
			"componentType":5123,
			"count":660,
			"type":"SCALAR"
		},
		{
			"bufferView":28,
			"componentType":5126,
			"count":4,
			"max":[
				1,
				0,
				1
			],
			"min":[
				-1,
				0,
				-1
			],
			"type":"VEC3"
		},
		{
			"bufferView":29,
			"componentType":5126,
			"count":4,
			"type":"VEC3"
		},
		{
			"bufferView":30,
			"componentType":5126,
			"count":4,
			"type":"VEC2"
		},
		{
			"bufferView":31,
			"componentType":5123,
			"count":6,
			"type":"SCALAR"
		},
		{
			"bufferView":32,
			"componentType":5126,
			"count":24,
			"max":[
				1,
				1,
				1
			],
			"min":[
				-1,
				-1,
				-1
			],
			"type":"VEC3"
		},
		{
			"bufferView":33,
			"componentType":5126,
			"count":24,
			"type":"VEC3"
		},
		{
			"bufferView":34,
			"componentType":5126,
			"count":24,
			"type":"VEC2"
		}
	],
	"bufferViews":[
		{
			"buffer":0,
			"byteLength":969540,
			"byteOffset":0,
			"target":34962
		},
		{
			"buffer":0,
			"byteLength":969540,
			"byteOffset":969540,
			"target":34962
		},
		{
			"buffer":0,
			"byteLength":646360,
			"byteOffset":1939080,
			"target":34962
		},
		{
			"buffer":0,
			"byteLength":514416,
			"byteOffset":2585440,
			"target":34963
		},
		{
			"buffer":0,
			"byteLength":29352,
			"byteOffset":3099856,
			"target":34962
		},
		{
			"buffer":0,
			"byteLength":29352,
			"byteOffset":3129208,
			"target":34962
		},
		{
			"buffer":0,
			"byteLength":19568,
			"byteOffset":3158560,
			"target":34962
		},
		{
			"buffer":0,
			"byteLength":7320,
			"byteOffset":3178128,
			"target":34963
		},
		{
			"buffer":0,
			"byteLength":672,
			"byteOffset":3185448,
			"target":34962
		},
		{
			"buffer":0,
			"byteLength":672,
			"byteOffset":3186120,
			"target":34962
		},
		{
			"buffer":0,
			"byteLength":448,
			"byteOffset":3186792,
			"target":34962
		},
		{
			"buffer":0,
			"byteLength":216,
			"byteOffset":3187240,
			"target":34963
		},
		{
			"buffer":0,
			"byteLength":288,
			"byteOffset":3187456,
			"target":34962
		},
		{
			"buffer":0,
			"byteLength":288,
			"byteOffset":3187744,
			"target":34962
		},
		{
			"buffer":0,
			"byteLength":192,
			"byteOffset":3188032,
			"target":34962
		},
		{
			"buffer":0,
			"byteLength":72,
			"byteOffset":3188224,
			"target":34963
		},
		{
			"buffer":0,
			"byteLength":801552,
			"byteOffset":3188296,
			"target":34962
		},
		{
			"buffer":0,
			"byteLength":801552,
			"byteOffset":3989848,
			"target":34962
		},
		{
			"buffer":0,
			"byteLength":534368,
			"byteOffset":4791400,
			"target":34962
		},
		{
			"buffer":0,
			"byteLength":448296,
			"byteOffset":5325768,
			"target":34963
		},
		{
			"buffer":0,
			"byteLength":5160,
			"byteOffset":5774064,
			"target":34962
		},
		{
			"buffer":0,
			"byteLength":5160,
			"byteOffset":5779224,
			"target":34962
		},
		{
			"buffer":0,
			"byteLength":3440,
			"byteOffset":5784384,
			"target":34962
		},
		{
			"buffer":0,
			"byteLength":2340,
			"byteOffset":5787824,
			"target":34963
		},
		{
			"buffer":0,
			"byteLength":1584,
			"byteOffset":5790164,
			"target":34962
		},
		{
			"buffer":0,
			"byteLength":1584,
			"byteOffset":5791748,
			"target":34962
		},
		{
			"buffer":0,
			"byteLength":1056,
			"byteOffset":5793332,
			"target":34962
		},
		{
			"buffer":0,
			"byteLength":1320,
			"byteOffset":5794388,
			"target":34963
		},
		{
			"buffer":0,
			"byteLength":48,
			"byteOffset":5795708,
			"target":34962
		},
		{
			"buffer":0,
			"byteLength":48,
			"byteOffset":5795756,
			"target":34962
		},
		{
			"buffer":0,
			"byteLength":32,
			"byteOffset":5795804,
			"target":34962
		},
		{
			"buffer":0,
			"byteLength":12,
			"byteOffset":5795836,
			"target":34963
		},
		{
			"buffer":0,
			"byteLength":288,
			"byteOffset":5795848,
			"target":34962
		},
		{
			"buffer":0,
			"byteLength":288,
			"byteOffset":5796136,
			"target":34962
		},
		{
			"buffer":0,
			"byteLength":192,
			"byteOffset":5796424,
			"target":34962
		}
	],
	"samplers":[
		{
			"magFilter":9729,
			"minFilter":9987
		}
	],
	"buffers":[
		{
			"byteLength":5796616,
			"uri":"devsocMoniFinal1.bin"
		}
	]
}
