{
	"asset":{
		"generator":"Khronos glTF Blender I/O v4.0.44",
		"version":"2.0"
	},
	"extensionsUsed":[
		"KHR_materials_specular"
	],
	"scene":0,
	"scenes":[
		{
			"name":"Scene",
			"nodes":[
				4
			]
		}
	],
	"nodes":[
		{
			"mesh":0,
			"name":"retro_computer_setup_retro_computer_setup_Mat_0"
		},
		{
			"children":[
				0
			],
			"name":"retro_computer_setup",
			"rotation":[
				-0.70710688829422,
				0,
				0,
				0.7071066498756409
			]
		},
		{
			"children":[
				1
			],
			"name":"RootNode"
		},
		{
			"children":[
				2
			],
			"name":"a5bfc7a51ed541f3a5b8b2dd1184f23c.fbx",
			"rotation":[
				0.70710688829422,
				0,
				0,
				0.7071066498756409
			]
		},
		{
			"children":[
				3
			],
			"name":"Sketchfab_model",
			"rotation":[
				-0.70710688829422,
				0,
				0,
				0.7071066498756409
			]
		}
	],
	"materials":[
		{
			"doubleSided":true,
			"emissiveFactor":[
				1,
				1,
				1
			],
			"emissiveTexture":{
				"index":0
			},
			"extensions":{
				"KHR_materials_specular":{
					"specularColorTexture":{
						"index":1
					}
				}
			},
			"name":"retro_computer_setup_Mat.001",
			"normalTexture":{
				"index":2
			},
			"occlusionTexture":{
				"index":3
			},
			"pbrMetallicRoughness":{
				"baseColorTexture":{
					"index":4
				},
				"metallicRoughnessTexture":{
					"index":3
				}
			}
		}
	],
	"meshes":[
		{
			"name":"retro_computer_setup_retro_computer_setup_Mat_0",
			"primitives":[
				{
					"attributes":{
						"POSITION":0,
						"NORMAL":1,
						"TEXCOORD_0":2
					},
					"indices":3,
					"material":0
				}
			]
		}
	],
	"textures":[
		{
			"sampler":0,
			"source":0
		},
		{
			"sampler":0,
			"source":1
		},
		{
			"sampler":0,
			"source":2
		},
		{
			"sampler":0,
			"source":3
		},
		{
			"sampler":0,
			"source":4
		}
	],
	"images":[
		{
			"mimeType":"image/png",
			"name":"retro_computer_setup_Mat_emissive",
			"uri":"retro_computer_setup_Mat_emissive.png"
		},
		{
			"mimeType":"image/png",
			"name":"Image",
			"uri":"Image.png"
		},
		{
			"mimeType":"image/png",
			"name":"retro_computer_setup_Mat_normal",
			"uri":"retro_computer_setup_Mat_normal.png"
		},
		{
			"mimeType":"image/png",
			"name":"retro_computer_setup_Mat_metallicRoughness",
			"uri":"retro_computer_setup_Mat_metallicRoughness.png"
		},
		{
			"mimeType":"image/png",
			"name":"retro_computer_setup_Mat_baseColor",
			"uri":"retro_computer_setup_Mat_baseColor.png"
		}
	],
	"accessors":[
		{
			"bufferView":0,
			"componentType":5126,
			"count":1122,
			"max":[
				0.21923834085464478,
				49.25447463989258,
				49.27845001220703
			],
			"min":[
				-47.87644577026367,
				3.825866460800171,
				0.005988297984004021
			],
			"type":"VEC3"
		},
		{
			"bufferView":1,
			"componentType":5126,
			"count":1122,
			"type":"VEC3"
		},
		{
			"bufferView":2,
			"componentType":5126,
			"count":1122,
			"type":"VEC2"
		},
		{
			"bufferView":3,
			"componentType":5123,
			"count":2484,
			"type":"SCALAR"
		}
	],
	"bufferViews":[
		{
			"buffer":0,
			"byteLength":13464,
			"byteOffset":0,
			"target":34962
		},
		{
			"buffer":0,
			"byteLength":13464,
			"byteOffset":13464,
			"target":34962
		},
		{
			"buffer":0,
			"byteLength":8976,
			"byteOffset":26928,
			"target":34962
		},
		{
			"buffer":0,
			"byteLength":4968,
			"byteOffset":35904,
			"target":34963
		}
	],
	"samplers":[
		{
			"magFilter":9729,
			"minFilter":9987
		}
	],
	"buffers":[
		{
			"byteLength":40872,
			"uri":"monitor.bin"
		}
	]
}
