<svg width="550" height="135" viewBox="0 0 550 135" fill="none" xmlns="http://www.w3.org/2000/svg">
<path d="M11.6216 106C10.9016 106 10.2616 105.76 9.70156 105.28C9.22156 104.72 8.98156 104.08 8.98156 103.36V26.32C8.98156 25.6 9.22156 25 9.70156 24.52C10.2616 23.96 10.9016 23.68 11.6216 23.68H53.6216C56.5016 23.68 59.2216 24.24 61.7816 25.36C64.4216 26.48 66.7016 28 68.6216 29.92C70.5416 31.84 72.0616 34.08 73.1816 36.64C74.3016 39.2 74.8616 41.96 74.8616 44.92V84.76C74.8616 87.72 74.3016 90.48 73.1816 93.04C72.0616 95.6 70.5416 97.84 68.6216 99.76C66.7016 101.68 64.4216 103.2 61.7816 104.32C59.2216 105.44 56.5016 106 53.6216 106H11.6216ZM25.4216 89.56H53.6216C54.9816 89.56 56.1016 89.12 56.9816 88.24C57.8616 87.28 58.3016 86.12 58.3016 84.76V44.92C58.3016 43.56 57.8616 42.44 56.9816 41.56C56.1016 40.6 54.9816 40.12 53.6216 40.12H25.4216V89.56ZM157.213 37.6C157.213 38.32 156.973 38.92 156.493 39.4C156.013 39.88 155.413 40.12 154.693 40.12H110.293V56.68H150.493C151.213 56.68 151.813 56.92 152.293 57.4C152.853 57.88 153.133 58.48 153.133 59.2V70.48C153.133 71.2 152.853 71.84 152.293 72.4C151.813 72.88 151.213 73.12 150.493 73.12H110.293V89.56H154.693C155.413 89.56 156.013 89.84 156.493 90.4C156.973 90.88 157.213 91.48 157.213 92.2V103.36C157.213 104.08 156.973 104.72 156.493 105.28C156.013 105.76 155.413 106 154.693 106H96.3734C95.6534 106 95.0534 105.76 94.5734 105.28C94.0934 104.72 93.8534 104.08 93.8534 103.36V26.32C93.8534 25.6 94.0934 25 94.5734 24.52C95.0534 23.96 95.6534 23.68 96.3734 23.68H154.693C155.413 23.68 156.013 23.96 156.493 24.52C156.973 25 157.213 25.6 157.213 26.32V37.6ZM220.248 106H197.928C197.208 106 196.488 105.76 195.768 105.28C195.048 104.8 194.568 104.24 194.328 103.6L177.168 60.64C176.848 60 176.608 59.2 176.448 58.24C176.288 57.2 176.208 56.32 176.208 55.6V26.32C176.208 25.6 176.448 25 176.928 24.52C177.408 23.96 178.008 23.68 178.728 23.68H190.008C190.728 23.68 191.328 23.96 191.808 24.52C192.368 25 192.648 25.6 192.648 26.32V52.48C192.648 53.2 192.728 54.04 192.888 55C193.048 55.96 193.288 56.76 193.608 57.4L206.448 89.56H211.728L224.568 57.4C224.888 56.76 225.128 55.96 225.288 55C225.448 54.04 225.528 53.2 225.528 52.48V26.32C225.528 25.6 225.768 25 226.248 24.52C226.808 23.96 227.448 23.68 228.168 23.68H239.448C240.168 23.68 240.768 23.96 241.248 24.52C241.728 25 241.968 25.6 241.968 26.32V55.6C241.968 56.32 241.888 57.2 241.728 58.24C241.568 59.2 241.328 60 241.008 60.64L223.848 103.6C223.608 104.24 223.128 104.8 222.408 105.28C221.688 105.76 220.968 106 220.248 106ZM311.723 48.4C311.003 48.4 310.363 48.16 309.803 47.68C309.323 47.12 309.083 46.48 309.083 45.76V44.92C309.083 43.56 308.643 42.44 307.763 41.56C306.883 40.6 305.763 40.12 304.403 40.12H280.883C279.603 40.12 278.483 40.6 277.523 41.56C276.643 42.44 276.203 43.56 276.203 44.92V51.88C276.203 53.24 276.643 54.4 277.523 55.36C278.483 56.24 279.603 56.68 280.883 56.68H304.403C307.283 56.68 310.003 57.24 312.563 58.36C315.123 59.48 317.363 61 319.283 62.92C321.203 64.84 322.723 67.08 323.843 69.64C324.963 72.2 325.523 74.92 325.523 77.8V84.76C325.523 87.72 324.963 90.48 323.843 93.04C322.723 95.6 321.203 97.84 319.283 99.76C317.363 101.68 315.123 103.2 312.563 104.32C310.003 105.44 307.283 106 304.403 106H280.883C278.003 106 275.283 105.44 272.723 104.32C270.163 103.2 267.923 101.68 266.003 99.76C264.083 97.84 262.563 95.6 261.443 93.04C260.323 90.48 259.763 87.72 259.763 84.76V83.92C259.763 83.2 260.003 82.6 260.483 82.12C261.043 81.56 261.683 81.28 262.403 81.28H273.563C274.283 81.28 274.883 81.56 275.363 82.12C275.923 82.6 276.203 83.2 276.203 83.92V84.76C276.203 86.12 276.643 87.28 277.523 88.24C278.483 89.12 279.603 89.56 280.883 89.56H304.403C305.763 89.56 306.883 89.12 307.763 88.24C308.643 87.28 309.083 86.12 309.083 84.76V77.8C309.083 76.44 308.643 75.32 307.763 74.44C306.883 73.56 305.763 73.12 304.403 73.12H280.883C278.003 73.12 275.283 72.56 272.723 71.44C270.163 70.32 267.923 68.8 266.003 66.88C264.083 64.96 262.563 62.72 261.443 60.16C260.323 57.52 259.763 54.76 259.763 51.88V44.92C259.763 41.96 260.323 39.2 261.443 36.64C262.563 34.08 264.083 31.84 266.003 29.92C267.923 28 270.163 26.48 272.723 25.36C275.283 24.24 278.003 23.68 280.883 23.68H304.403C307.283 23.68 310.003 24.24 312.563 25.36C315.123 26.48 317.363 28 319.283 29.92C321.203 31.84 322.723 34.08 323.843 36.64C324.963 39.2 325.523 41.96 325.523 44.92V45.76C325.523 46.48 325.283 47.12 324.803 47.68C324.323 48.16 323.723 48.4 323.003 48.4H311.723ZM388.075 23.8C391.035 23.8 393.795 24.36 396.355 25.48C398.915 26.6 401.155 28.12 403.075 30.04C404.995 31.96 406.515 34.2 407.635 36.76C408.755 39.32 409.315 42.04 409.315 44.92V84.88C409.315 87.76 408.755 90.48 407.635 93.04C406.515 95.6 404.995 97.84 403.075 99.76C401.155 101.68 398.915 103.2 396.355 104.32C393.795 105.44 391.035 106 388.075 106H364.675C361.715 106 358.955 105.44 356.395 104.32C353.835 103.2 351.595 101.68 349.675 99.76C347.755 97.84 346.235 95.6 345.115 93.04C343.995 90.48 343.435 87.76 343.435 84.88V44.92C343.435 42.04 343.995 39.32 345.115 36.76C346.235 34.2 347.755 31.96 349.675 30.04C351.595 28.12 353.835 26.6 356.395 25.48C358.955 24.36 361.715 23.8 364.675 23.8H388.075ZM392.875 44.92C392.875 43.56 392.395 42.44 391.435 41.56C390.555 40.68 389.435 40.24 388.075 40.24H364.675C363.315 40.24 362.155 40.68 361.195 41.56C360.315 42.44 359.875 43.56 359.875 44.92V84.88C359.875 86.24 360.315 87.36 361.195 88.24C362.155 89.12 363.315 89.56 364.675 89.56H388.075C389.435 89.56 390.555 89.12 391.435 88.24C392.395 87.36 392.875 86.24 392.875 84.88V44.92ZM479.187 48.4C478.467 48.4 477.827 48.16 477.267 47.68C476.787 47.12 476.547 46.48 476.547 45.76V44.92C476.547 43.56 476.067 42.44 475.107 41.56C474.227 40.6 473.107 40.12 471.747 40.12H448.347C446.987 40.12 445.867 40.6 444.987 41.56C444.107 42.44 443.667 43.56 443.667 44.92V84.76C443.667 86.12 444.107 87.28 444.987 88.24C445.867 89.12 446.987 89.56 448.347 89.56H471.747C473.107 89.56 474.227 89.12 475.107 88.24C476.067 87.28 476.547 86.12 476.547 84.76V83.92C476.547 83.2 476.787 82.6 477.267 82.12C477.827 81.56 478.467 81.28 479.187 81.28H490.347C491.067 81.28 491.667 81.56 492.147 82.12C492.707 82.6 492.987 83.2 492.987 83.92V84.76C492.987 87.72 492.427 90.48 491.307 93.04C490.187 95.6 488.667 97.84 486.747 99.76C484.827 101.68 482.587 103.2 480.027 104.32C477.467 105.44 474.707 106 471.747 106H448.347C445.467 106 442.707 105.44 440.067 104.32C437.507 103.2 435.267 101.68 433.347 99.76C431.427 97.84 429.907 95.6 428.787 93.04C427.667 90.48 427.107 87.72 427.107 84.76V44.92C427.107 41.96 427.667 39.2 428.787 36.64C429.907 34.08 431.427 31.84 433.347 29.92C435.267 28 437.507 26.48 440.067 25.36C442.707 24.24 445.467 23.68 448.347 23.68H471.747C474.707 23.68 477.467 24.24 480.027 25.36C482.587 26.48 484.827 28 486.747 29.92C488.667 31.84 490.187 34.08 491.307 36.64C492.427 39.2 492.987 41.96 492.987 44.92V45.76C492.987 46.48 492.707 47.12 492.147 47.68C491.667 48.16 491.067 48.4 490.347 48.4H479.187Z" fill="#9CE79A" fill-opacity="0.8"/>
<path d="M529.316 35.7765C529.316 35.3912 529.18 35.0625 528.908 34.7905C528.659 34.5412 528.341 34.4165 527.956 34.4165H524.658V47.6765C524.658 47.8805 524.579 48.0505 524.42 48.1865C524.284 48.3452 524.114 48.4245 523.91 48.4245H520.714C520.51 48.4245 520.34 48.3452 520.204 48.1865C520.068 48.0505 520 47.8805 520 47.6765V30.5065C520 30.3025 520.068 30.1212 520.204 29.9625C520.34 29.8265 520.51 29.7585 520.714 29.7585H527.956C528.795 29.7585 529.577 29.9172 530.302 30.2345C531.027 30.5519 531.662 30.9825 532.206 31.5265C532.75 32.0705 533.181 32.7052 533.498 33.4305C533.815 34.1559 533.974 34.9379 533.974 35.7765V39.0745V42.4065C533.974 42.7919 534.099 43.1092 534.348 43.3585C534.62 43.6305 534.949 43.7665 535.334 43.7665H537.306C537.691 43.7665 538.009 43.6305 538.258 43.3585C538.507 43.1092 538.632 42.7919 538.632 42.4065V35.7765C538.632 35.3912 538.507 35.0625 538.258 34.7905C538.009 34.5412 537.691 34.4165 537.306 34.4165H537.034C536.83 34.4165 536.66 34.3485 536.524 34.2125C536.388 34.0765 536.32 33.9065 536.32 33.7025V30.5065C536.32 30.3025 536.388 30.1212 536.524 29.9625C536.66 29.8265 536.83 29.7585 537.034 29.7585H537.306C538.122 29.7585 538.893 29.9172 539.618 30.2345C540.343 30.5519 540.978 30.9825 541.522 31.5265C542.066 32.0705 542.497 32.7052 542.814 33.4305C543.131 34.1559 543.29 34.9379 543.29 35.7765V42.4065C543.29 43.2225 543.131 43.9932 542.814 44.7185C542.497 45.4665 542.066 46.1125 541.522 46.6565C540.978 47.2005 540.343 47.6312 539.618 47.9485C538.893 48.2659 538.122 48.4245 537.306 48.4245H535.334C534.495 48.4245 533.713 48.2659 532.988 47.9485C532.263 47.6312 531.628 47.2005 531.084 46.6565C530.54 46.1125 530.109 45.4665 529.792 44.7185C529.475 43.9932 529.316 43.2225 529.316 42.4065V39.0745V35.7765ZM520.646 67.0996C520.465 67.2129 520.306 67.2242 520.17 67.1336C520.057 67.0656 520 66.9296 520 66.7256V62.8496C520 62.6456 520.057 62.4416 520.17 62.2376C520.306 62.0336 520.465 61.8749 520.646 61.7616L529.316 56.8316V53.5336H520.748C520.544 53.5336 520.363 53.4542 520.204 53.2956C520.068 53.1596 520 52.9896 520 52.7856V49.5896C520 49.3856 520.068 49.2156 520.204 49.0796C520.363 48.9436 520.544 48.8756 520.748 48.8756H542.576C542.78 48.8756 542.95 48.9436 543.086 49.0796C543.245 49.2156 543.324 49.3856 543.324 49.5896V52.7856C543.324 52.9896 543.245 53.1596 543.086 53.2956C542.95 53.4542 542.78 53.5336 542.576 53.5336H533.974V56.8316L542.678 61.7616C542.859 61.8749 543.007 62.0336 543.12 62.2376C543.256 62.4416 543.324 62.6456 543.324 62.8496V66.7256C543.324 66.9296 543.256 67.0656 543.12 67.1336C543.007 67.2242 542.859 67.2129 542.678 67.0996L531.662 60.8776L520.646 67.0996ZM529.316 73.6706C529.316 73.2853 529.18 72.9566 528.908 72.6846C528.659 72.4353 528.341 72.3106 527.956 72.3106H524.658V85.5706C524.658 85.7746 524.579 85.9446 524.42 86.0806C524.284 86.2393 524.114 86.3186 523.91 86.3186H520.714C520.51 86.3186 520.34 86.2393 520.204 86.0806C520.068 85.9446 520 85.7746 520 85.5706V68.4006C520 68.1966 520.068 68.0153 520.204 67.8566C520.34 67.7206 520.51 67.6526 520.714 67.6526H527.956C528.795 67.6526 529.577 67.8113 530.302 68.1286C531.027 68.4459 531.662 68.8766 532.206 69.4206C532.75 69.9646 533.181 70.5993 533.498 71.3246C533.815 72.0499 533.974 72.8319 533.974 73.6706V76.9686V80.3006C533.974 80.6859 534.099 81.0033 534.348 81.2526C534.62 81.5246 534.949 81.6606 535.334 81.6606H537.306C537.691 81.6606 538.009 81.5246 538.258 81.2526C538.507 81.0033 538.632 80.6859 538.632 80.3006V73.6706C538.632 73.2853 538.507 72.9566 538.258 72.6846C538.009 72.4353 537.691 72.3106 537.306 72.3106H537.034C536.83 72.3106 536.66 72.2426 536.524 72.1066C536.388 71.9706 536.32 71.8006 536.32 71.5966V68.4006C536.32 68.1966 536.388 68.0153 536.524 67.8566C536.66 67.7206 536.83 67.6526 537.034 67.6526H537.306C538.122 67.6526 538.893 67.8113 539.618 68.1286C540.343 68.4459 540.978 68.8766 541.522 69.4206C542.066 69.9646 542.497 70.5993 542.814 71.3246C543.131 72.0499 543.29 72.8319 543.29 73.6706V80.3006C543.29 81.1166 543.131 81.8873 542.814 82.6126C542.497 83.3606 542.066 84.0066 541.522 84.5506C540.978 85.0946 540.343 85.5253 539.618 85.8426C538.893 86.1599 538.122 86.3186 537.306 86.3186H535.334C534.495 86.3186 533.713 86.1599 532.988 85.8426C532.263 85.5253 531.628 85.0946 531.084 84.5506C530.54 84.0066 530.109 83.3606 529.792 82.6126C529.475 81.8873 529.316 81.1166 529.316 80.3006V76.9686V73.6706ZM530.71 104.858C530.71 105.062 530.642 105.232 530.506 105.368C530.37 105.504 530.2 105.572 529.996 105.572H526.8C526.596 105.572 526.415 105.504 526.256 105.368C526.12 105.232 526.052 105.062 526.052 104.858V103.872H520.714C520.51 103.872 520.34 103.804 520.204 103.668C520.068 103.532 520 103.362 520 103.158V99.9616C520 99.7576 520.068 99.5763 520.204 99.4176C520.34 99.2816 520.51 99.2136 520.714 99.2136H526.052V86.9736C526.052 86.7696 526.12 86.5996 526.256 86.4636C526.415 86.3276 526.596 86.2596 526.8 86.2596H529.996C530.2 86.2596 530.427 86.2936 530.676 86.3616C530.925 86.4523 531.141 86.5656 531.322 86.7016L542.712 95.5416C542.893 95.655 543.029 95.825 543.12 96.0516C543.233 96.301 543.29 96.5276 543.29 96.7316V103.158C543.29 103.362 543.222 103.532 543.086 103.668C542.95 103.804 542.78 103.872 542.576 103.872H530.71V104.858ZM530.71 99.2136H540.06L530.71 92.0056V99.2136Z" fill="#9CE79A" fill-opacity="0.8"/>
</svg>
