<svg width="1512" height="1700" viewBox="0 0 1512 1700" fill="none" xmlns="http://www.w3.org/2000/svg">
<g style="mix-blend-mode:exclusion" opacity="0.06">
<path d="M855.966 555.241L1012.67 629.319H855.966V555.241Z" stroke="black"/>
<path d="M469.469 630.32H729.923V900.664H469.469V630.32Z" stroke="black"/>
<path d="M344.426 900.664V668.418L410.446 630.32H491.204V900.664H344.426Z" fill="#c7c7c7" stroke="black"/>
<path d="M468.469 629.319H389.444L468.469 583.736V629.319Z" fill="#c7c7c7" stroke="black"/>
<path d="M1094.86 1164.08L770.709 1349.32V1191.33L820.638 1164.08H1094.86Z" fill="#c7c7c7" stroke="black"/>
<path d="M1043.53 906.846V906.346H1043.03H730.923V901.663H1167.57V1099.81L1056.82 1163.08H782.685L1043.27 1020.96L1043.53 1020.82V1020.52V906.846Z" fill="#c7c7c7" stroke="black"/>
<path d="M877.701 793.172V793.672H878.201H1190.31V900.664H753.658V630.32H877.701V793.172Z" fill="#c7c7c7" stroke="black"/>
<path d="M1017.12 630.32H1167.57V701.442L1017.12 630.32Z" fill="#c7c7c7" stroke="black"/>
<path d="M849.996 554L849.282 553.662V554.452V629.319H725.239V350.668L1161.89 583.171V629.319H1009.32L849.996 554Z" fill="#c7c7c7" stroke="black"/>
<path d="M321.691 1007.4V901.663H468.469V1007.4H321.691Z" fill="#c7c7c7" stroke="black"/>
<path d="M451.418 1099.26L304.639 1020.23V1008.41H451.418V1099.26Z" fill="#c7c7c7" stroke="black"/>
<path d="M1369.41 1209.05L747.474 1568.15L125.543 1209.05V1208.59H1369.41V1209.05Z" stroke="black"/>
<path d="M1369.41 490.914V513.656H125.543V490.914L746.983 132.137H747.965L1369.41 490.914Z" stroke="black"/>
<path d="M125.543 955.034H1369.41V1207.59H125.543V955.034Z" stroke="black"/>
<mask id="path-15-inside-1_1_2" fill="white">
<path d="M747.474 131.238L746.849 131.636H748.099L747.474 131.238Z"/>
</mask>
<path d="M747.474 131.238L748.011 130.394L747.474 130.052L746.937 130.394L747.474 131.238ZM746.849 131.636L746.312 130.792L743.414 132.636H746.849V131.636ZM748.099 131.636V132.636H751.532L748.636 130.792L748.099 131.636ZM746.937 130.394L746.312 130.792L747.385 132.479L748.011 132.081L746.937 130.394ZM746.849 132.636H748.099V130.636H746.849V132.636ZM748.636 130.792L748.011 130.394L746.937 132.081L747.562 132.479L748.636 130.792Z" fill="black" mask="url(#path-15-inside-1_1_2)"/>
<path d="M125.543 514.655H1369.41V954.034H125.543V514.655Z" stroke="black"/>
<path d="M0.5 955.034H113.176V1207.59H0.5V955.034Z" fill="#c7c7c7" stroke="black"/>
<path d="M1375.84 1209.77L1376.09 1209.63V1209.34V1208.59H1488.76V1274.7L919.332 1603.46H586.984L17.5513 1274.7V1208.59H130.227V1209.34V1209.63L130.477 1209.77L752.908 1569.16L753.158 1569.3L753.408 1569.16L1375.84 1209.77Z" fill="#c7c7c7" stroke="black"/>
<path d="M719.074 1699.4L554.614 1604.46H911.637L719.074 1699.4Z" fill="#c7c7c7" stroke="black"/>
<path d="M40.2865 514.655H152.962V954.034H40.2865V514.655Z" fill="#c7c7c7" stroke="black"/>
<path d="M1370.41 514.655H1511.5V954.034H1370.41V514.655Z" fill="#c7c7c7" stroke="black"/>
<path d="M725.007 130.817L724.739 130.646L724.47 130.817L723.968 131.136H498.628L724.739 0.577367L950.849 131.136H725.51L725.007 130.817Z" fill="#c7c7c7" stroke="black"/>
<path d="M124.793 490.192L124.543 490.336V490.625V513.656H12.0517L40.2041 425.314L548.05 132.137H744.983L124.793 490.192Z" fill="#c7c7c7" stroke="black"/>
<path d="M1347.67 490.625V490.336L1347.42 490.192L727.231 132.137H952.582L1460.35 425.266V513.656H1347.67V490.625Z" fill="#c7c7c7" stroke="black"/>
<path d="M1398.82 955.034H1511.5V1207.59H1398.82V955.034Z" fill="#c7c7c7" stroke="black"/>
</g>
</svg>
