<svg width="132" height="32" viewBox="0 0 132 32" fill="none" xmlns="http://www.w3.org/2000/svg">
<g clip-path="url(#clip0_130_1573)">
<circle cx="1.5" cy="1.5" r="1.5" fill="#ABABAB"/>
<circle cx="10.5" cy="1.5" r="1.5" fill="#ABABAB"/>
<circle cx="19.5" cy="1.5" r="1.5" fill="#ABABAB"/>
<circle cx="28.5" cy="1.5" r="1.5" fill="#ABABAB"/>
<circle cx="37.5" cy="1.5" r="1.5" fill="#ABABAB"/>
<circle cx="46.5" cy="1.5" r="1.5" fill="#ABABAB"/>
<circle cx="55.5" cy="1.5" r="1.5" fill="#ABABAB"/>
<circle cx="64.5" cy="1.5" r="1.5" fill="#ABABAB"/>
<circle cx="73.5" cy="1.5" r="1.5" fill="#ABABAB"/>
<circle cx="82.5" cy="1.5" r="1.5" fill="#ABABAB"/>
<circle cx="91.5" cy="1.5" r="1.5" fill="#ABABAB"/>
<circle cx="100.5" cy="1.5" r="1.5" fill="#ABABAB"/>
<circle cx="109.5" cy="1.5" r="1.5" fill="#ABABAB"/>
<circle cx="118.5" cy="1.5" r="1.5" fill="#ABABAB"/>
<circle cx="127.5" cy="1.5" r="1.5" fill="#ABABAB"/>
<circle cx="1.5" cy="10.5" r="1.5" fill="#ABABAB"/>
<circle cx="10.5" cy="10.5" r="1.5" fill="#ABABAB"/>
<circle cx="19.5" cy="10.5" r="1.5" fill="#ABABAB"/>
<circle cx="28.5" cy="10.5" r="1.5" fill="#ABABAB"/>
<circle cx="37.5" cy="10.5" r="1.5" fill="#ABABAB"/>
<circle cx="46.5" cy="10.5" r="1.5" fill="#ABABAB"/>
<circle cx="55.5" cy="10.5" r="1.5" fill="#ABABAB"/>
<circle cx="64.5" cy="10.5" r="1.5" fill="#ABABAB"/>
<circle cx="73.5" cy="10.5" r="1.5" fill="#ABABAB"/>
<circle cx="82.5" cy="10.5" r="1.5" fill="#ABABAB"/>
<circle cx="91.5" cy="10.5" r="1.5" fill="#ABABAB"/>
<circle cx="100.5" cy="10.5" r="1.5" fill="#ABABAB"/>
<circle cx="109.5" cy="10.5" r="1.5" fill="#ABABAB"/>
<circle cx="118.5" cy="10.5" r="1.5" fill="#ABABAB"/>
<circle cx="127.5" cy="10.5" r="1.5" fill="#ABABAB"/>
<circle cx="1.5" cy="19.5" r="1.5" fill="#ABABAB"/>
<circle cx="10.5" cy="19.5" r="1.5" fill="#ABABAB"/>
<circle cx="19.5" cy="19.5" r="1.5" fill="#ABABAB"/>
<circle cx="28.5" cy="19.5" r="1.5" fill="#ABABAB"/>
<circle cx="37.5" cy="19.5" r="1.5" fill="#ABABAB"/>
<circle cx="46.5" cy="19.5" r="1.5" fill="#ABABAB"/>
<circle cx="55.5" cy="19.5" r="1.5" fill="#ABABAB"/>
<circle cx="64.5" cy="19.5" r="1.5" fill="#ABABAB"/>
<circle cx="73.5" cy="19.5" r="1.5" fill="#ABABAB"/>
<circle cx="82.5" cy="19.5" r="1.5" fill="#ABABAB"/>
<circle cx="91.5" cy="19.5" r="1.5" fill="#ABABAB"/>
<circle cx="100.5" cy="19.5" r="1.5" fill="#ABABAB"/>
<circle cx="109.5" cy="19.5" r="1.5" fill="#ABABAB"/>
<circle cx="118.5" cy="19.5" r="1.5" fill="#ABABAB"/>
<circle cx="127.5" cy="19.5" r="1.5" fill="#ABABAB"/>
<circle cx="1.5" cy="28.5" r="1.5" fill="#ABABAB"/>
<circle cx="10.5" cy="28.5" r="1.5" fill="#ABABAB"/>
<circle cx="19.5" cy="28.5" r="1.5" fill="#ABABAB"/>
<circle cx="28.5" cy="28.5" r="1.5" fill="#ABABAB"/>
<circle cx="37.5" cy="28.5" r="1.5" fill="#ABABAB"/>
<circle cx="46.5" cy="28.5" r="1.5" fill="#ABABAB"/>
<circle cx="55.5" cy="28.5" r="1.5" fill="#ABABAB"/>
<circle cx="64.5" cy="28.5" r="1.5" fill="#ABABAB"/>
<circle cx="73.5" cy="28.5" r="1.5" fill="#ABABAB"/>
<circle cx="82.5" cy="28.5" r="1.5" fill="#ABABAB"/>
<circle cx="91.5" cy="28.5" r="1.5" fill="#ABABAB"/>
<circle cx="100.5" cy="28.5" r="1.5" fill="#ABABAB"/>
<circle cx="109.5" cy="28.5" r="1.5" fill="#ABABAB"/>
<circle cx="118.5" cy="28.5" r="1.5" fill="#ABABAB"/>
<circle cx="127.5" cy="28.5" r="1.5" fill="#ABABAB"/>
<rect width="12" height="12" fill="#ABABAB"/>
</g>
<defs>
<clipPath id="clip0_130_1573">
<rect width="132" height="32" fill="white"/>
</clipPath>
</defs>
</svg>
