<svg width="1460" height="69" viewBox="0 0 1460 69" fill="none" xmlns="http://www.w3.org/2000/svg">
<g clip-path="url(#clip0_50_4450)">
<circle cx="232.5" cy="1.5" r="1.5" fill="#ABABAB"/>
<circle cx="241.5" cy="1.5" r="1.5" fill="#ABABAB"/>
<circle cx="250.5" cy="1.5" r="1.5" fill="#ABABAB"/>
<circle cx="259.5" cy="1.5" r="1.5" fill="#ABABAB"/>
<circle cx="268.5" cy="1.5" r="1.5" fill="#ABABAB"/>
<circle cx="277.5" cy="1.5" r="1.5" fill="#ABABAB"/>
<circle cx="286.5" cy="1.5" r="1.5" fill="#ABABAB"/>
<circle cx="295.5" cy="1.5" r="1.5" fill="#ABABAB"/>
<circle cx="304.5" cy="1.5" r="1.5" fill="#ABABAB"/>
<circle cx="313.5" cy="1.5" r="1.5" fill="#ABABAB"/>
<circle cx="322.5" cy="1.5" r="1.5" fill="#ABABAB"/>
<circle cx="331.5" cy="1.5" r="1.5" fill="#ABABAB"/>
<circle cx="340.5" cy="1.5" r="1.5" fill="#ABABAB"/>
<circle cx="349.5" cy="1.5" r="1.5" fill="#ABABAB"/>
<circle cx="358.5" cy="1.5" r="1.5" fill="#ABABAB"/>
<circle cx="232.5" cy="10.5" r="1.5" fill="#ABABAB"/>
<circle cx="241.5" cy="10.5" r="1.5" fill="#ABABAB"/>
<circle cx="250.5" cy="10.5" r="1.5" fill="#ABABAB"/>
<circle cx="259.5" cy="10.5" r="1.5" fill="#ABABAB"/>
<circle cx="268.5" cy="10.5" r="1.5" fill="#ABABAB"/>
<circle cx="277.5" cy="10.5" r="1.5" fill="#ABABAB"/>
<circle cx="286.5" cy="10.5" r="1.5" fill="#ABABAB"/>
<circle cx="295.5" cy="10.5" r="1.5" fill="#ABABAB"/>
<circle cx="304.5" cy="10.5" r="1.5" fill="#ABABAB"/>
<circle cx="313.5" cy="10.5" r="1.5" fill="#ABABAB"/>
<circle cx="322.5" cy="10.5" r="1.5" fill="#ABABAB"/>
<circle cx="331.5" cy="10.5" r="1.5" fill="#ABABAB"/>
<circle cx="340.5" cy="10.5" r="1.5" fill="#ABABAB"/>
<circle cx="349.5" cy="10.5" r="1.5" fill="#ABABAB"/>
<circle cx="358.5" cy="10.5" r="1.5" fill="#ABABAB"/>
<circle cx="232.5" cy="19.5" r="1.5" fill="#ABABAB"/>
<circle cx="241.5" cy="19.5" r="1.5" fill="#ABABAB"/>
<circle cx="250.5" cy="19.5" r="1.5" fill="#ABABAB"/>
<circle cx="259.5" cy="19.5" r="1.5" fill="#ABABAB"/>
<circle cx="268.5" cy="19.5" r="1.5" fill="#ABABAB"/>
<circle cx="277.5" cy="19.5" r="1.5" fill="#ABABAB"/>
<circle cx="286.5" cy="19.5" r="1.5" fill="#ABABAB"/>
<circle cx="295.5" cy="19.5" r="1.5" fill="#ABABAB"/>
<circle cx="304.5" cy="19.5" r="1.5" fill="#ABABAB"/>
<circle cx="313.5" cy="19.5" r="1.5" fill="#ABABAB"/>
<circle cx="322.5" cy="19.5" r="1.5" fill="#ABABAB"/>
<circle cx="331.5" cy="19.5" r="1.5" fill="#ABABAB"/>
<circle cx="340.5" cy="19.5" r="1.5" fill="#ABABAB"/>
<circle cx="349.5" cy="19.5" r="1.5" fill="#ABABAB"/>
<circle cx="358.5" cy="19.5" r="1.5" fill="#ABABAB"/>
<circle cx="232.5" cy="28.5" r="1.5" fill="#ABABAB"/>
<circle cx="241.5" cy="28.5" r="1.5" fill="#ABABAB"/>
<circle cx="250.5" cy="28.5" r="1.5" fill="#ABABAB"/>
<circle cx="259.5" cy="28.5" r="1.5" fill="#ABABAB"/>
<circle cx="268.5" cy="28.5" r="1.5" fill="#ABABAB"/>
<circle cx="277.5" cy="28.5" r="1.5" fill="#ABABAB"/>
<circle cx="286.5" cy="28.5" r="1.5" fill="#ABABAB"/>
<circle cx="295.5" cy="28.5" r="1.5" fill="#ABABAB"/>
<circle cx="304.5" cy="28.5" r="1.5" fill="#ABABAB"/>
<circle cx="313.5" cy="28.5" r="1.5" fill="#ABABAB"/>
<circle cx="322.5" cy="28.5" r="1.5" fill="#ABABAB"/>
<circle cx="331.5" cy="28.5" r="1.5" fill="#ABABAB"/>
<circle cx="340.5" cy="28.5" r="1.5" fill="#ABABAB"/>
<circle cx="349.5" cy="28.5" r="1.5" fill="#ABABAB"/>
<circle cx="358.5" cy="28.5" r="1.5" fill="#ABABAB"/>
</g>
<g clip-path="url(#clip1_50_4450)">
<circle cx="943.5" cy="25.5" r="1.5" fill="#ABABAB"/>
<circle cx="952.5" cy="25.5" r="1.5" fill="#ABABAB"/>
<circle cx="961.5" cy="25.5" r="1.5" fill="#ABABAB"/>
<circle cx="970.5" cy="25.5" r="1.5" fill="#ABABAB"/>
<circle cx="979.5" cy="25.5" r="1.5" fill="#ABABAB"/>
<circle cx="988.5" cy="25.5" r="1.5" fill="#ABABAB"/>
<circle cx="997.5" cy="25.5" r="1.5" fill="#ABABAB"/>
<circle cx="1006.5" cy="25.5" r="1.5" fill="#ABABAB"/>
<circle cx="1015.5" cy="25.5" r="1.5" fill="#ABABAB"/>
<circle cx="1024.5" cy="25.5" r="1.5" fill="#ABABAB"/>
<circle cx="1033.5" cy="25.5" r="1.5" fill="#ABABAB"/>
<circle cx="1042.5" cy="25.5" r="1.5" fill="#ABABAB"/>
<circle cx="1051.5" cy="25.5" r="1.5" fill="#ABABAB"/>
<circle cx="1060.5" cy="25.5" r="1.5" fill="#ABABAB"/>
<circle cx="1069.5" cy="25.5" r="1.5" fill="#ABABAB"/>
<circle cx="943.5" cy="34.5" r="1.5" fill="#ABABAB"/>
<circle cx="952.5" cy="34.5" r="1.5" fill="#ABABAB"/>
<circle cx="961.5" cy="34.5" r="1.5" fill="#ABABAB"/>
<circle cx="970.5" cy="34.5" r="1.5" fill="#ABABAB"/>
<circle cx="979.5" cy="34.5" r="1.5" fill="#ABABAB"/>
<circle cx="988.5" cy="34.5" r="1.5" fill="#ABABAB"/>
<circle cx="997.5" cy="34.5" r="1.5" fill="#ABABAB"/>
<circle cx="1006.5" cy="34.5" r="1.5" fill="#ABABAB"/>
<circle cx="1015.5" cy="34.5" r="1.5" fill="#ABABAB"/>
<circle cx="1024.5" cy="34.5" r="1.5" fill="#ABABAB"/>
<circle cx="1033.5" cy="34.5" r="1.5" fill="#ABABAB"/>
<circle cx="1042.5" cy="34.5" r="1.5" fill="#ABABAB"/>
<circle cx="1051.5" cy="34.5" r="1.5" fill="#ABABAB"/>
<circle cx="1060.5" cy="34.5" r="1.5" fill="#ABABAB"/>
<circle cx="1069.5" cy="34.5" r="1.5" fill="#ABABAB"/>
<circle cx="943.5" cy="43.5" r="1.5" fill="#ABABAB"/>
<circle cx="952.5" cy="43.5" r="1.5" fill="#ABABAB"/>
<circle cx="961.5" cy="43.5" r="1.5" fill="#ABABAB"/>
<circle cx="970.5" cy="43.5" r="1.5" fill="#ABABAB"/>
<circle cx="979.5" cy="43.5" r="1.5" fill="#ABABAB"/>
<circle cx="988.5" cy="43.5" r="1.5" fill="#ABABAB"/>
<circle cx="997.5" cy="43.5" r="1.5" fill="#ABABAB"/>
<circle cx="1006.5" cy="43.5" r="1.5" fill="#ABABAB"/>
<circle cx="1015.5" cy="43.5" r="1.5" fill="#ABABAB"/>
<circle cx="1024.5" cy="43.5" r="1.5" fill="#ABABAB"/>
<circle cx="1033.5" cy="43.5" r="1.5" fill="#ABABAB"/>
<circle cx="1042.5" cy="43.5" r="1.5" fill="#ABABAB"/>
<circle cx="1051.5" cy="43.5" r="1.5" fill="#ABABAB"/>
<circle cx="1060.5" cy="43.5" r="1.5" fill="#ABABAB"/>
<circle cx="1069.5" cy="43.5" r="1.5" fill="#ABABAB"/>
</g>
<g clip-path="url(#clip2_50_4450)">
<circle cx="1042.5" cy="34.5" r="1.5" fill="#ABABAB"/>
<circle cx="1051.5" cy="34.5" r="1.5" fill="#ABABAB"/>
<circle cx="1060.5" cy="34.5" r="1.5" fill="#ABABAB"/>
<circle cx="1069.5" cy="34.5" r="1.5" fill="#ABABAB"/>
<circle cx="1078.5" cy="34.5" r="1.5" fill="#ABABAB"/>
<circle cx="1087.5" cy="34.5" r="1.5" fill="#ABABAB"/>
<circle cx="1096.5" cy="34.5" r="1.5" fill="#ABABAB"/>
<circle cx="1105.5" cy="34.5" r="1.5" fill="#ABABAB"/>
<circle cx="1114.5" cy="34.5" r="1.5" fill="#ABABAB"/>
<circle cx="1123.5" cy="34.5" r="1.5" fill="#ABABAB"/>
<circle cx="1132.5" cy="34.5" r="1.5" fill="#ABABAB"/>
<circle cx="1141.5" cy="34.5" r="1.5" fill="#ABABAB"/>
<circle cx="1150.5" cy="34.5" r="1.5" fill="#ABABAB"/>
<circle cx="1159.5" cy="34.5" r="1.5" fill="#ABABAB"/>
<circle cx="1168.5" cy="34.5" r="1.5" fill="#ABABAB"/>
<circle cx="1042.5" cy="43.5" r="1.5" fill="#ABABAB"/>
<circle cx="1051.5" cy="43.5" r="1.5" fill="#ABABAB"/>
<circle cx="1060.5" cy="43.5" r="1.5" fill="#ABABAB"/>
<circle cx="1069.5" cy="43.5" r="1.5" fill="#ABABAB"/>
<circle cx="1078.5" cy="43.5" r="1.5" fill="#ABABAB"/>
<circle cx="1087.5" cy="43.5" r="1.5" fill="#ABABAB"/>
<circle cx="1096.5" cy="43.5" r="1.5" fill="#ABABAB"/>
<circle cx="1105.5" cy="43.5" r="1.5" fill="#ABABAB"/>
<circle cx="1114.5" cy="43.5" r="1.5" fill="#ABABAB"/>
<circle cx="1123.5" cy="43.5" r="1.5" fill="#ABABAB"/>
<circle cx="1132.5" cy="43.5" r="1.5" fill="#ABABAB"/>
<circle cx="1141.5" cy="43.5" r="1.5" fill="#ABABAB"/>
<circle cx="1150.5" cy="43.5" r="1.5" fill="#ABABAB"/>
<circle cx="1159.5" cy="43.5" r="1.5" fill="#ABABAB"/>
<circle cx="1168.5" cy="43.5" r="1.5" fill="#ABABAB"/>
<circle cx="1042.5" cy="52.5" r="1.5" fill="#ABABAB"/>
<circle cx="1051.5" cy="52.5" r="1.5" fill="#ABABAB"/>
<circle cx="1060.5" cy="52.5" r="1.5" fill="#ABABAB"/>
<circle cx="1069.5" cy="52.5" r="1.5" fill="#ABABAB"/>
<circle cx="1078.5" cy="52.5" r="1.5" fill="#ABABAB"/>
<circle cx="1087.5" cy="52.5" r="1.5" fill="#ABABAB"/>
<circle cx="1096.5" cy="52.5" r="1.5" fill="#ABABAB"/>
<circle cx="1105.5" cy="52.5" r="1.5" fill="#ABABAB"/>
<circle cx="1114.5" cy="52.5" r="1.5" fill="#ABABAB"/>
<circle cx="1123.5" cy="52.5" r="1.5" fill="#ABABAB"/>
<circle cx="1132.5" cy="52.5" r="1.5" fill="#ABABAB"/>
<circle cx="1141.5" cy="52.5" r="1.5" fill="#ABABAB"/>
<circle cx="1150.5" cy="52.5" r="1.5" fill="#ABABAB"/>
<circle cx="1159.5" cy="52.5" r="1.5" fill="#ABABAB"/>
<circle cx="1168.5" cy="52.5" r="1.5" fill="#ABABAB"/>
</g>
<g clip-path="url(#clip3_50_4450)">
<circle cx="349.5" cy="19.5" r="1.5" fill="#ABABAB"/>
<circle cx="358.5" cy="19.5" r="1.5" fill="#ABABAB"/>
<circle cx="367.5" cy="19.5" r="1.5" fill="#ABABAB"/>
<circle cx="376.5" cy="19.5" r="1.5" fill="#ABABAB"/>
<circle cx="385.5" cy="19.5" r="1.5" fill="#ABABAB"/>
<circle cx="394.5" cy="19.5" r="1.5" fill="#ABABAB"/>
<circle cx="403.5" cy="19.5" r="1.5" fill="#ABABAB"/>
<circle cx="412.5" cy="19.5" r="1.5" fill="#ABABAB"/>
<circle cx="421.5" cy="19.5" r="1.5" fill="#ABABAB"/>
<circle cx="430.5" cy="19.5" r="1.5" fill="#ABABAB"/>
<circle cx="439.5" cy="19.5" r="1.5" fill="#ABABAB"/>
<circle cx="448.5" cy="19.5" r="1.5" fill="#ABABAB"/>
<circle cx="457.5" cy="19.5" r="1.5" fill="#ABABAB"/>
<circle cx="466.5" cy="19.5" r="1.5" fill="#ABABAB"/>
<circle cx="475.5" cy="19.5" r="1.5" fill="#ABABAB"/>
<circle cx="349.5" cy="28.5" r="1.5" fill="#ABABAB"/>
<circle cx="358.5" cy="28.5" r="1.5" fill="#ABABAB"/>
<circle cx="367.5" cy="28.5" r="1.5" fill="#ABABAB"/>
<circle cx="376.5" cy="28.5" r="1.5" fill="#ABABAB"/>
<circle cx="385.5" cy="28.5" r="1.5" fill="#ABABAB"/>
<circle cx="394.5" cy="28.5" r="1.5" fill="#ABABAB"/>
<circle cx="403.5" cy="28.5" r="1.5" fill="#ABABAB"/>
<circle cx="412.5" cy="28.5" r="1.5" fill="#ABABAB"/>
<circle cx="421.5" cy="28.5" r="1.5" fill="#ABABAB"/>
<circle cx="430.5" cy="28.5" r="1.5" fill="#ABABAB"/>
<circle cx="439.5" cy="28.5" r="1.5" fill="#ABABAB"/>
<circle cx="448.5" cy="28.5" r="1.5" fill="#ABABAB"/>
<circle cx="457.5" cy="28.5" r="1.5" fill="#ABABAB"/>
<circle cx="466.5" cy="28.5" r="1.5" fill="#ABABAB"/>
<circle cx="475.5" cy="28.5" r="1.5" fill="#ABABAB"/>
<circle cx="349.5" cy="37.5" r="1.5" fill="#ABABAB"/>
<circle cx="358.5" cy="37.5" r="1.5" fill="#ABABAB"/>
<circle cx="367.5" cy="37.5" r="1.5" fill="#ABABAB"/>
<circle cx="376.5" cy="37.5" r="1.5" fill="#ABABAB"/>
<circle cx="385.5" cy="37.5" r="1.5" fill="#ABABAB"/>
<circle cx="394.5" cy="37.5" r="1.5" fill="#ABABAB"/>
<circle cx="403.5" cy="37.5" r="1.5" fill="#ABABAB"/>
<circle cx="412.5" cy="37.5" r="1.5" fill="#ABABAB"/>
<circle cx="421.5" cy="37.5" r="1.5" fill="#ABABAB"/>
<circle cx="430.5" cy="37.5" r="1.5" fill="#ABABAB"/>
<circle cx="439.5" cy="37.5" r="1.5" fill="#ABABAB"/>
<circle cx="448.5" cy="37.5" r="1.5" fill="#ABABAB"/>
<circle cx="457.5" cy="37.5" r="1.5" fill="#ABABAB"/>
<circle cx="466.5" cy="37.5" r="1.5" fill="#ABABAB"/>
<circle cx="475.5" cy="37.5" r="1.5" fill="#ABABAB"/>
<circle cx="349.5" cy="46.5" r="1.5" fill="#ABABAB"/>
<circle cx="358.5" cy="46.5" r="1.5" fill="#ABABAB"/>
<circle cx="367.5" cy="46.5" r="1.5" fill="#ABABAB"/>
<circle cx="376.5" cy="46.5" r="1.5" fill="#ABABAB"/>
<circle cx="385.5" cy="46.5" r="1.5" fill="#ABABAB"/>
<circle cx="394.5" cy="46.5" r="1.5" fill="#ABABAB"/>
<circle cx="403.5" cy="46.5" r="1.5" fill="#ABABAB"/>
<circle cx="412.5" cy="46.5" r="1.5" fill="#ABABAB"/>
<circle cx="421.5" cy="46.5" r="1.5" fill="#ABABAB"/>
<circle cx="430.5" cy="46.5" r="1.5" fill="#ABABAB"/>
<circle cx="439.5" cy="46.5" r="1.5" fill="#ABABAB"/>
<circle cx="448.5" cy="46.5" r="1.5" fill="#ABABAB"/>
<circle cx="457.5" cy="46.5" r="1.5" fill="#ABABAB"/>
<circle cx="466.5" cy="46.5" r="1.5" fill="#ABABAB"/>
<circle cx="475.5" cy="46.5" r="1.5" fill="#ABABAB"/>
<rect x="348" y="18" width="12" height="12" fill="#ABABAB"/>
</g>
<g clip-path="url(#clip4_50_4450)">
<circle cx="1283.5" cy="47.5" r="1.5" fill="#ABABAB"/>
<circle cx="1292.5" cy="47.5" r="1.5" fill="#ABABAB"/>
<circle cx="1301.5" cy="47.5" r="1.5" fill="#ABABAB"/>
<circle cx="1310.5" cy="47.5" r="1.5" fill="#ABABAB"/>
<circle cx="1319.5" cy="47.5" r="1.5" fill="#ABABAB"/>
<circle cx="1328.5" cy="47.5" r="1.5" fill="#ABABAB"/>
<circle cx="1337.5" cy="47.5" r="1.5" fill="#ABABAB"/>
<circle cx="1346.5" cy="47.5" r="1.5" fill="#ABABAB"/>
<circle cx="1355.5" cy="47.5" r="1.5" fill="#ABABAB"/>
<circle cx="1364.5" cy="47.5" r="1.5" fill="#ABABAB"/>
<circle cx="1373.5" cy="47.5" r="1.5" fill="#ABABAB"/>
<circle cx="1382.5" cy="47.5" r="1.5" fill="#ABABAB"/>
<circle cx="1391.5" cy="47.5" r="1.5" fill="#ABABAB"/>
<circle cx="1400.5" cy="47.5" r="1.5" fill="#ABABAB"/>
<circle cx="1409.5" cy="47.5" r="1.5" fill="#ABABAB"/>
<circle cx="1283.5" cy="56.5" r="1.5" fill="#ABABAB"/>
<circle cx="1292.5" cy="56.5" r="1.5" fill="#ABABAB"/>
<circle cx="1301.5" cy="56.5" r="1.5" fill="#ABABAB"/>
<circle cx="1310.5" cy="56.5" r="1.5" fill="#ABABAB"/>
<circle cx="1319.5" cy="56.5" r="1.5" fill="#ABABAB"/>
<circle cx="1328.5" cy="56.5" r="1.5" fill="#ABABAB"/>
<circle cx="1337.5" cy="56.5" r="1.5" fill="#ABABAB"/>
<circle cx="1346.5" cy="56.5" r="1.5" fill="#ABABAB"/>
<circle cx="1355.5" cy="56.5" r="1.5" fill="#ABABAB"/>
<circle cx="1364.5" cy="56.5" r="1.5" fill="#ABABAB"/>
<circle cx="1373.5" cy="56.5" r="1.5" fill="#ABABAB"/>
<circle cx="1382.5" cy="56.5" r="1.5" fill="#ABABAB"/>
<circle cx="1391.5" cy="56.5" r="1.5" fill="#ABABAB"/>
<circle cx="1400.5" cy="56.5" r="1.5" fill="#ABABAB"/>
<circle cx="1409.5" cy="56.5" r="1.5" fill="#ABABAB"/>
<circle cx="1283.5" cy="65.5" r="1.5" fill="#ABABAB"/>
<circle cx="1292.5" cy="65.5" r="1.5" fill="#ABABAB"/>
<circle cx="1301.5" cy="65.5" r="1.5" fill="#ABABAB"/>
<circle cx="1310.5" cy="65.5" r="1.5" fill="#ABABAB"/>
<circle cx="1319.5" cy="65.5" r="1.5" fill="#ABABAB"/>
<circle cx="1328.5" cy="65.5" r="1.5" fill="#ABABAB"/>
<circle cx="1337.5" cy="65.5" r="1.5" fill="#ABABAB"/>
<circle cx="1346.5" cy="65.5" r="1.5" fill="#ABABAB"/>
<circle cx="1355.5" cy="65.5" r="1.5" fill="#ABABAB"/>
<circle cx="1364.5" cy="65.5" r="1.5" fill="#ABABAB"/>
<circle cx="1373.5" cy="65.5" r="1.5" fill="#ABABAB"/>
<circle cx="1382.5" cy="65.5" r="1.5" fill="#ABABAB"/>
<circle cx="1391.5" cy="65.5" r="1.5" fill="#ABABAB"/>
<circle cx="1400.5" cy="65.5" r="1.5" fill="#ABABAB"/>
<circle cx="1409.5" cy="65.5" r="1.5" fill="#ABABAB"/>
</g>
<g clip-path="url(#clip5_50_4450)">
<circle cx="1.5" cy="24.5" r="1.5" fill="#ABABAB"/>
<circle cx="10.5" cy="24.5" r="1.5" fill="#ABABAB"/>
<circle cx="19.5" cy="24.5" r="1.5" fill="#ABABAB"/>
<circle cx="28.5" cy="24.5" r="1.5" fill="#ABABAB"/>
<circle cx="37.5" cy="24.5" r="1.5" fill="#ABABAB"/>
<circle cx="46.5" cy="24.5" r="1.5" fill="#ABABAB"/>
<circle cx="55.5" cy="24.5" r="1.5" fill="#ABABAB"/>
<circle cx="64.5" cy="24.5" r="1.5" fill="#ABABAB"/>
<circle cx="73.5" cy="24.5" r="1.5" fill="#ABABAB"/>
<circle cx="82.5" cy="24.5" r="1.5" fill="#ABABAB"/>
<circle cx="91.5" cy="24.5" r="1.5" fill="#ABABAB"/>
<circle cx="100.5" cy="24.5" r="1.5" fill="#ABABAB"/>
<circle cx="109.5" cy="24.5" r="1.5" fill="#ABABAB"/>
<circle cx="118.5" cy="24.5" r="1.5" fill="#ABABAB"/>
<circle cx="127.5" cy="24.5" r="1.5" fill="#ABABAB"/>
<circle cx="1.5" cy="33.5" r="1.5" fill="#ABABAB"/>
<circle cx="10.5" cy="33.5" r="1.5" fill="#ABABAB"/>
<circle cx="19.5" cy="33.5" r="1.5" fill="#ABABAB"/>
<circle cx="28.5" cy="33.5" r="1.5" fill="#ABABAB"/>
<circle cx="37.5" cy="33.5" r="1.5" fill="#ABABAB"/>
<circle cx="46.5" cy="33.5" r="1.5" fill="#ABABAB"/>
<circle cx="55.5" cy="33.5" r="1.5" fill="#ABABAB"/>
<circle cx="64.5" cy="33.5" r="1.5" fill="#ABABAB"/>
<circle cx="73.5" cy="33.5" r="1.5" fill="#ABABAB"/>
<circle cx="82.5" cy="33.5" r="1.5" fill="#ABABAB"/>
<circle cx="91.5" cy="33.5" r="1.5" fill="#ABABAB"/>
<circle cx="100.5" cy="33.5" r="1.5" fill="#ABABAB"/>
<circle cx="109.5" cy="33.5" r="1.5" fill="#ABABAB"/>
<circle cx="118.5" cy="33.5" r="1.5" fill="#ABABAB"/>
<circle cx="127.5" cy="33.5" r="1.5" fill="#ABABAB"/>
<circle cx="1.5" cy="42.5" r="1.5" fill="#ABABAB"/>
<circle cx="10.5" cy="42.5" r="1.5" fill="#ABABAB"/>
<circle cx="19.5" cy="42.5" r="1.5" fill="#ABABAB"/>
<circle cx="28.5" cy="42.5" r="1.5" fill="#ABABAB"/>
<circle cx="37.5" cy="42.5" r="1.5" fill="#ABABAB"/>
<circle cx="46.5" cy="42.5" r="1.5" fill="#ABABAB"/>
<circle cx="55.5" cy="42.5" r="1.5" fill="#ABABAB"/>
<circle cx="64.5" cy="42.5" r="1.5" fill="#ABABAB"/>
<circle cx="73.5" cy="42.5" r="1.5" fill="#ABABAB"/>
<circle cx="82.5" cy="42.5" r="1.5" fill="#ABABAB"/>
<circle cx="91.5" cy="42.5" r="1.5" fill="#ABABAB"/>
<circle cx="100.5" cy="42.5" r="1.5" fill="#ABABAB"/>
<circle cx="109.5" cy="42.5" r="1.5" fill="#ABABAB"/>
<circle cx="118.5" cy="42.5" r="1.5" fill="#ABABAB"/>
<circle cx="127.5" cy="42.5" r="1.5" fill="#ABABAB"/>
<circle cx="1.5" cy="51.5" r="1.5" fill="#ABABAB"/>
<circle cx="10.5" cy="51.5" r="1.5" fill="#ABABAB"/>
<circle cx="19.5" cy="51.5" r="1.5" fill="#ABABAB"/>
<circle cx="28.5" cy="51.5" r="1.5" fill="#ABABAB"/>
<circle cx="37.5" cy="51.5" r="1.5" fill="#ABABAB"/>
<circle cx="46.5" cy="51.5" r="1.5" fill="#ABABAB"/>
<circle cx="55.5" cy="51.5" r="1.5" fill="#ABABAB"/>
<circle cx="64.5" cy="51.5" r="1.5" fill="#ABABAB"/>
<circle cx="73.5" cy="51.5" r="1.5" fill="#ABABAB"/>
<circle cx="82.5" cy="51.5" r="1.5" fill="#ABABAB"/>
<circle cx="91.5" cy="51.5" r="1.5" fill="#ABABAB"/>
<circle cx="100.5" cy="51.5" r="1.5" fill="#ABABAB"/>
<circle cx="109.5" cy="51.5" r="1.5" fill="#ABABAB"/>
<circle cx="118.5" cy="51.5" r="1.5" fill="#ABABAB"/>
<circle cx="127.5" cy="51.5" r="1.5" fill="#ABABAB"/>
<rect y="41" width="12" height="12" fill="#ABABAB"/>
</g>
<g clip-path="url(#clip6_50_4450)">
<circle cx="1355.5" cy="38.5" r="1.5" fill="#ABABAB"/>
<circle cx="1364.5" cy="38.5" r="1.5" fill="#ABABAB"/>
<circle cx="1373.5" cy="38.5" r="1.5" fill="#ABABAB"/>
<circle cx="1382.5" cy="38.5" r="1.5" fill="#ABABAB"/>
<circle cx="1391.5" cy="38.5" r="1.5" fill="#ABABAB"/>
<circle cx="1400.5" cy="38.5" r="1.5" fill="#ABABAB"/>
<circle cx="1409.5" cy="38.5" r="1.5" fill="#ABABAB"/>
<circle cx="1418.5" cy="38.5" r="1.5" fill="#ABABAB"/>
<circle cx="1427.5" cy="38.5" r="1.5" fill="#ABABAB"/>
<circle cx="1436.5" cy="38.5" r="1.5" fill="#ABABAB"/>
<circle cx="1445.5" cy="38.5" r="1.5" fill="#ABABAB"/>
<circle cx="1454.5" cy="38.5" r="1.5" fill="#ABABAB"/>
<circle cx="1355.5" cy="47.5" r="1.5" fill="#ABABAB"/>
<circle cx="1364.5" cy="47.5" r="1.5" fill="#ABABAB"/>
<circle cx="1373.5" cy="47.5" r="1.5" fill="#ABABAB"/>
<circle cx="1382.5" cy="47.5" r="1.5" fill="#ABABAB"/>
<circle cx="1391.5" cy="47.5" r="1.5" fill="#ABABAB"/>
<circle cx="1400.5" cy="47.5" r="1.5" fill="#ABABAB"/>
<circle cx="1409.5" cy="47.5" r="1.5" fill="#ABABAB"/>
<circle cx="1418.5" cy="47.5" r="1.5" fill="#ABABAB"/>
<circle cx="1427.5" cy="47.5" r="1.5" fill="#ABABAB"/>
<circle cx="1436.5" cy="47.5" r="1.5" fill="#ABABAB"/>
<circle cx="1445.5" cy="47.5" r="1.5" fill="#ABABAB"/>
<circle cx="1454.5" cy="47.5" r="1.5" fill="#ABABAB"/>
</g>
<defs>
<clipPath id="clip0_50_4450">
<rect width="132" height="32" fill="white" transform="translate(231)"/>
</clipPath>
<clipPath id="clip1_50_4450">
<rect width="132" height="23" fill="white" transform="translate(942 24)"/>
</clipPath>
<clipPath id="clip2_50_4450">
<rect width="132" height="24" fill="white" transform="translate(1041 33)"/>
</clipPath>
<clipPath id="clip3_50_4450">
<rect width="132" height="32" fill="white" transform="translate(348 18)"/>
</clipPath>
<clipPath id="clip4_50_4450">
<rect width="132" height="23" fill="white" transform="translate(1282 46)"/>
</clipPath>
<clipPath id="clip5_50_4450">
<rect width="132" height="32" fill="white" transform="translate(0 23)"/>
</clipPath>
<clipPath id="clip6_50_4450">
<rect width="106" height="18" fill="white" transform="translate(1354 37)"/>
</clipPath>
</defs>
</svg>
