<svg width="29" height="33" viewBox="0 0 29 33" fill="none" xmlns="http://www.w3.org/2000/svg">
<path d="M7.86848 12.0797L6.59521 12.8145V17.284H9.42955V12.0797H7.86848Z" fill="black"/>
<path d="M8.9927 11.1792L7.43164 12.0796H8.9927V11.1792Z" fill="black"/>
<path d="M14.7725 22.8436V25.8959L21.0352 22.317H15.7372L14.7725 22.8436Z" fill="black"/>
<path d="M22.4033 17.2839H14.0093V17.3929H20.005V19.5732L14.974 22.3171H20.2721L22.4033 21.0994V17.2839Z" fill="black"/>
<path d="M22.8403 15.2127H16.8446V12.0797H14.4463V17.284H22.8403V15.2127Z" fill="black"/>
<path d="M22.4037 13.4685V12.0797H19.4658L22.4037 13.4685Z" fill="black"/>
<path d="M16.2977 10.6342L19.3555 12.0797H22.2934V11.1792L13.8994 6.70972V12.0797H16.2977V10.6342Z" fill="black"/>
<path d="M8.99644 17.2839H6.16211V19.3312H8.99644V17.2839Z" fill="black"/>
<path d="M5.83154 19.3313V19.5733L8.66587 21.0995V19.3313H5.83154Z" fill="black"/>
<path d="M2.18026 18.3075H0V23.1706H2.18026V18.3075Z" fill="black"/>
<path d="M28.5646 23.1707H26.3844V23.1946L14.4464 30.0875L2.50838 23.1946V23.1707H0.328125V24.4537L11.2567 30.7634H17.6361L28.5646 24.4537V23.1707Z" fill="black"/>
<path d="M13.7918 32.6047L17.5265 30.7634H10.6021L13.7918 32.6047Z" fill="black"/>
<path d="M2.94246 9.86121H0.762207V18.3075H2.94246V9.86121Z" fill="black"/>
<path d="M28.9997 9.86133H26.2744V18.3076H28.9997V9.86133Z" fill="black"/>
<path d="M13.8989 2.5171L13.9109 2.52474H18.2714L13.8989 0L9.52637 2.52474H13.8869L13.8989 2.5171Z" fill="black"/>
<path d="M2.39901 9.41002L14.325 2.52478H10.5096L0.763814 8.15092L0.21875 9.86133H2.39901V9.41002Z" fill="black"/>
<path d="M25.8381 9.41002V9.86133H28.0184V8.15092L18.2726 2.52478H13.9121L25.8381 9.41002Z" fill="black"/>
<path d="M29.0001 18.3075H26.8198V23.1706H29.0001V18.3075Z" fill="black"/>
</svg>
