<svg width="1512" height="762" viewBox="0 0 1512 762" fill="none" xmlns="http://www.w3.org/2000/svg">
<g style="mix-blend-mode:exclusion" opacity="0.24">
<path d="M410.312 629.82L343.926 668.129V901.164H491.704V629.82H410.312Z" fill="#B5B5B5"/>
<path d="M468.969 582.871L387.577 629.819H468.969V582.871Z" fill="#B5B5B5"/>
<path d="M1190.81 793.172H878.201V629.82H753.158V901.164H1190.81V793.172Z" fill="#B5B5B5"/>
<path d="M1168.07 702.232V629.82H1014.9L1168.07 702.232Z" fill="#B5B5B5"/>
<path d="M849.782 554.452L1009.21 629.819H1162.39V582.871L724.739 349.836V629.819H849.782V554.452Z" fill="#B5B5B5"/>
<path d="M153.462 514.155H39.7865V954.534H153.462V514.155Z" fill="#B5B5B5"/>
<path d="M1512 514.155H1369.91V954.534H1512V514.155Z" fill="#B5B5B5"/>
<path d="M724.739 131.239L725.364 131.636H952.715L724.739 0L496.762 131.636H724.113L724.739 131.239Z" fill="#B5B5B5"/>
<path d="M125.043 490.625L746.849 131.637H547.916L39.7865 424.977L11.3676 514.156H125.043V490.625Z" fill="#B5B5B5"/>
<path d="M1347.17 490.625V514.156H1460.85V424.977L952.716 131.637H725.365L1347.17 490.625Z" fill="#B5B5B5"/>
</g>
</svg>
