<svg width="1920" height="447" viewBox="0 0 1920 447" fill="none" xmlns="http://www.w3.org/2000/svg">
<g style="mix-blend-mode:color-burn" opacity="0.21">
<path fill-rule="evenodd" clip-rule="evenodd" d="M676.049 178.667H368.083V134H676.049V178.667ZM2031.94 178.667H1723.98V134H2031.94V178.667ZM1692.97 134V178.667H1385V134H1692.97ZM1046.03 134H1354V178.667H1046.03V134ZM1015.02 134V178.667H927.032V134H1015.02ZM707.057 134H773.017L817.684 178.667H707.057V134ZM337.076 134V178.667H29.1099V134H337.076Z" fill="white"/>
<path fill-rule="evenodd" clip-rule="evenodd" d="M117.1 268H29.1099V312.667H117.1V268ZM202.436 312.667L247.103 268H337.076V310.012L334.421 312.667H202.436ZM456.073 312.667H368.083V268H456.073V312.667ZM1015.02 312.667H819.699L775.032 268H907.017L927.032 288.015V268H1015.02V312.667ZM1329.34 312.667H1197.36L1200.01 310.012H1046.03V268H1374.01L1329.34 312.667ZM2031.94 268V312.667H1985.29L2029.96 268H2031.94ZM1723.98 268H1813.95L1858.62 312.667H1726.63L1723.98 310.012V268ZM1692.97 268V312.667H1604.98V268H1692.97ZM1385 268V312.667H1472.99V268H1385ZM478.071 268H676.049V310.012H478.071V268Z" fill="white"/>
<path fill-rule="evenodd" clip-rule="evenodd" d="M117.1 402H29.1099V420H117.1V402ZM139.098 446.667V402H245.088L200.421 446.667H139.098ZM1195.34 446.667H1103.49L1083.43 426.599L1108.03 402H1240.01L1195.34 446.667ZM1983.28 446.667H1860.63L1815.96 402H2027.95L1983.28 446.667ZM1385 402H1692.97V420H1385V402ZM909.032 402H1015.02V420H927.032L909.032 402ZM368.083 402H757.038L775.038 420H368.083V402Z" fill="white"/>
<path fill-rule="evenodd" clip-rule="evenodd" d="M85.0026 351.961V312.667H-2.90259V268H85.0026V131.985H216.988V197.978L107 307.966V439.951L107.085 439.866V402H144.951L234.285 312.667H170.423L215.09 268H278.951L304.978 241.973L304.978 110.627H-2.98743V65.9608H304.978L304.978 43.9951H-2.98755V351.961H85.0026ZM643.952 65.9608L643.952 43.9951H335.986V351.961H742.94L654.95 263.971H423.976V131.985H643.952L643.952 110.627H335.986V65.9608H643.952ZM445.974 241.973H643.952V153.983H445.974V241.973ZM982.925 43.9951H894.935V219.975L785.587 110.627H674.959V65.9608H740.92L674.959 0V131.985L810.974 268H875.005L895.02 288.015V268H982.925L982.925 110.627H894.935V65.9608H982.925L982.925 43.9951ZM894.935 351.961L855.641 312.667H982.925V351.961H894.935ZM1321.9 65.9608L1321.9 43.9951H1013.93V241.973H1167.92L1141.89 268H1273.87L1352.91 188.968V351.961H1660.87V312.667H1572.97V268H1660.87L1660.87 110.627H1352.91L1352.91 153.983H1101.92V131.985H1321.9L1321.9 110.627H1013.93V65.9608H1321.9ZM1051.33 358.56L1099.88 310.012H1168L1165.35 312.667H1229.21L1139.87 402H1094.77L1051.33 358.56ZM1352.91 65.9608H1660.87L1660.87 43.9951H1352.91L1352.91 65.9608ZM1572.88 263.971H1440.9V131.985H1572.88V263.971ZM1691.88 110.627L1691.88 241.973L1717.91 268H1781.94L1826.6 312.667H1762.57L1851.91 402H1927.81L1999.85 329.963V312.667H1953.28L1997.95 268H1999.85V197.978L1889.86 307.966L1779.87 197.978V131.985H1999.85L1999.85 110.627H1691.88ZM1691.88 65.9608H1999.85L1999.85 43.9951H1691.88L1691.88 65.9608ZM424.061 312.667H336.071V268H424.061V312.667ZM1352.99 268V312.667H1440.98V268H1352.99ZM446.059 268H644.036V310.012H446.059V268Z" fill="white"/>
<path fill-rule="evenodd" clip-rule="evenodd" d="M644.036 178.667H336.071V134H644.036V178.667ZM1999.93 178.667H1691.96V134H1999.93V178.667ZM1660.96 134V178.667H1352.99V134H1660.96ZM1014.02 134H1321.98V178.667H1014.02V134ZM983.01 134V178.667H895.019V134H983.01ZM675.044 134H741.005L785.671 178.667H675.044V134ZM305.063 134V178.667H-2.90283V134H305.063Z" fill="white"/>
<path fill-rule="evenodd" clip-rule="evenodd" d="M85.0874 268H-2.90283V312.667H85.0874V268ZM170.423 312.667L215.09 268H305.063V310.012L302.408 312.667H170.423ZM424.061 312.667H336.071V268H424.061V312.667ZM983.01 312.667H787.686L743.019 268H875.005L895.019 288.015V268H983.01V312.667ZM1297.33 312.667H1165.35L1168 310.012H1014.02V268H1342L1297.33 312.667ZM1999.93 268V312.667H1953.28L1997.95 268H1999.93ZM1691.96 268H1781.94L1826.6 312.667H1694.62L1691.96 310.012V268ZM1660.96 268V312.667H1572.97V268H1660.96ZM1352.99 268V312.667H1440.98V268H1352.99ZM446.058 268H644.036V310.012H446.058V268Z" fill="white"/>
<path fill-rule="evenodd" clip-rule="evenodd" d="M85.0874 402H-2.90283V420H85.0874V402ZM107.085 446.667V402H213.075L168.408 446.667H107.085ZM1163.33 446.667H1071.48L1051.41 426.599L1076.01 402H1208L1163.33 446.667ZM1951.27 446.667H1828.62L1783.95 402H1995.93L1951.27 446.667ZM1352.99 402H1660.96V420H1352.99V402ZM877.019 402H983.01V420H895.019L877.019 402ZM336.071 402H725.025L743.025 420H336.071V402Z" fill="white"/>
<path fill-rule="evenodd" clip-rule="evenodd" d="M52.9902 351.961V312.667H-34.9153V268H52.9902V131.985H184.975V197.978L74.9877 307.966V439.951L75.0725 439.866V402H112.939L202.272 312.667H138.411L183.077 268H246.939L272.966 241.973V43.9951H-35V65.9608H272.966V110.627H-35V351.961H52.9902ZM391.964 131.985H611.939V43.9951H303.973L303.973 65.9608H611.939V110.627H303.973L303.973 351.961H710.928L622.938 263.971H391.964V131.985ZM413.961 241.973H611.939V153.983H413.961V241.973ZM862.922 110.627L862.922 219.975L753.574 110.627H642.947L642.947 131.985L778.962 268H842.992L863.007 288.015V268H950.913V43.9951H862.922L862.922 65.9608H950.912V110.627H862.922ZM862.922 351.961L823.628 312.667H950.913V351.961H862.922ZM642.947 65.9608H708.907L642.947 0L642.947 65.9608ZM1289.89 65.9608L1289.89 43.9951H981.92L981.92 65.9608H1289.89ZM1289.89 110.627H981.92L981.92 241.973H1135.9L1109.88 268H1241.86L1320.89 188.968V351.961H1628.86V312.667H1540.95V268H1628.86L1628.86 110.627H1320.89L1320.89 153.983H1069.91V131.985H1289.89L1289.89 110.627ZM1019.32 358.56L1067.86 310.012H1135.99L1133.33 312.667H1197.19L1107.86 402H1062.76L1019.32 358.56ZM1320.89 65.9608H1628.86L1628.86 43.9951H1320.89L1320.89 65.9608ZM1540.87 263.971H1408.88V131.985H1540.87V263.971ZM1659.87 110.627L1659.87 241.973L1685.89 268H1749.92L1794.59 312.667H1730.56L1819.89 402H1895.8L1967.83 329.963V312.667H1921.27L1965.93 268H1967.83V197.978L1857.84 307.966L1747.86 197.978V131.985H1967.83L1967.83 110.627H1659.87ZM1659.87 65.9608H1967.83L1967.83 43.9951H1659.87L1659.87 65.9608ZM392.048 312.667H304.058V268H392.048V312.667ZM1320.98 268V312.667H1408.97V268H1320.98ZM414.046 268H612.024V310.012H414.046V268Z" fill="white"/>
<path fill-rule="evenodd" clip-rule="evenodd" d="M676.049 178.667H368.083V134H676.049V178.667ZM2031.94 178.667H1723.98V134H2031.94V178.667ZM1692.97 134V178.667H1385V134H1692.97ZM1046.03 134H1354V178.667H1046.03V134ZM1015.02 134V178.667H927.032V134H1015.02ZM707.057 134H773.017L817.684 178.667H707.057V134ZM337.076 134V178.667H29.1099V134H337.076Z" fill="#B34FFF" style="mix-blend-mode:multiply"/>
<path fill-rule="evenodd" clip-rule="evenodd" d="M117.1 268H29.1099V312.667H117.1V268ZM202.436 312.667L247.103 268H337.076V310.012L334.421 312.667H202.436ZM456.073 312.667H368.083V268H456.073V312.667ZM1015.02 312.667H819.699L775.032 268H907.017L927.032 288.015V268H1015.02V312.667ZM1329.34 312.667H1197.36L1200.01 310.012H1046.03V268H1374.01L1329.34 312.667ZM2031.94 268V312.667H1985.29L2029.96 268H2031.94ZM1723.98 268H1813.95L1858.62 312.667H1726.63L1723.98 310.012V268ZM1692.97 268V312.667H1604.98V268H1692.97ZM1385 268V312.667H1472.99V268H1385ZM478.071 268H676.049V310.012H478.071V268Z" fill="#B34FFF" style="mix-blend-mode:multiply"/>
<path fill-rule="evenodd" clip-rule="evenodd" d="M117.1 402H29.1099V420H117.1V402ZM139.098 446.667V402H245.088L200.421 446.667H139.098ZM1195.34 446.667H1103.49L1083.43 426.599L1108.03 402H1240.01L1195.34 446.667ZM1983.28 446.667H1860.63L1815.96 402H2027.95L1983.28 446.667ZM1385 402H1692.97V420H1385V402ZM909.032 402H1015.02V420H927.032L909.032 402ZM368.083 402H757.038L775.038 420H368.083V402Z" fill="#B34FFF" style="mix-blend-mode:multiply"/>
<path fill-rule="evenodd" clip-rule="evenodd" d="M85.0026 351.961V312.667H-2.90259V268H85.0026V131.985H216.988V197.978L107 307.966V439.951L107.085 439.866V402H144.951L234.285 312.667H170.423L215.09 268H278.951L304.978 241.973L304.978 110.627H-2.98743V65.9608H304.978L304.978 43.9951H-2.98755V351.961H85.0026ZM643.952 65.9608L643.952 43.9951H335.986V351.961H742.94L654.95 263.971H423.976V131.985H643.952L643.952 110.627H335.986V65.9608H643.952ZM445.974 241.973H643.952V153.983H445.974V241.973ZM982.925 43.9951H894.935V219.975L785.587 110.627H674.959V65.9608H740.92L674.959 0V131.985L810.974 268H875.005L895.02 288.015V268H982.925L982.925 110.627H894.935V65.9608H982.925L982.925 43.9951ZM894.935 351.961L855.641 312.667H982.925V351.961H894.935ZM1321.9 65.9608L1321.9 43.9951H1013.93V241.973H1167.92L1141.89 268H1273.87L1352.91 188.968V351.961H1660.87V312.667H1572.97V268H1660.87L1660.87 110.627H1352.91L1352.91 153.983H1101.92V131.985H1321.9L1321.9 110.627H1013.93V65.9608H1321.9ZM1051.33 358.56L1099.88 310.012H1168L1165.35 312.667H1229.21L1139.87 402H1094.77L1051.33 358.56ZM1352.91 65.9608H1660.87L1660.87 43.9951H1352.91L1352.91 65.9608ZM1572.88 263.971H1440.9V131.985H1572.88V263.971ZM1691.88 110.627L1691.88 241.973L1717.91 268H1781.94L1826.6 312.667H1762.57L1851.91 402H1927.81L1999.85 329.963V312.667H1953.28L1997.95 268H1999.85V197.978L1889.86 307.966L1779.87 197.978V131.985H1999.85L1999.85 110.627H1691.88ZM1691.88 65.9608H1999.85L1999.85 43.9951H1691.88L1691.88 65.9608ZM424.061 312.667H336.071V268H424.061V312.667ZM1352.99 268V312.667H1440.98V268H1352.99ZM446.059 268H644.036V310.012H446.059V268Z" fill="#B34FFF" style="mix-blend-mode:multiply"/>
<path fill-rule="evenodd" clip-rule="evenodd" d="M644.036 178.667H336.071V134H644.036V178.667ZM1999.93 178.667H1691.96V134H1999.93V178.667ZM1660.96 134V178.667H1352.99V134H1660.96ZM1014.02 134H1321.98V178.667H1014.02V134ZM983.01 134V178.667H895.019V134H983.01ZM675.044 134H741.005L785.671 178.667H675.044V134ZM305.063 134V178.667H-2.90283V134H305.063Z" fill="#4DE6FF" style="mix-blend-mode:multiply"/>
<path fill-rule="evenodd" clip-rule="evenodd" d="M85.0874 268H-2.90283V312.667H85.0874V268ZM170.423 312.667L215.09 268H305.063V310.012L302.408 312.667H170.423ZM424.061 312.667H336.071V268H424.061V312.667ZM983.01 312.667H787.686L743.019 268H875.005L895.019 288.015V268H983.01V312.667ZM1297.33 312.667H1165.35L1168 310.012H1014.02V268H1342L1297.33 312.667ZM1999.93 268V312.667H1953.28L1997.95 268H1999.93ZM1691.96 268H1781.94L1826.6 312.667H1694.62L1691.96 310.012V268ZM1660.96 268V312.667H1572.97V268H1660.96ZM1352.99 268V312.667H1440.98V268H1352.99ZM446.058 268H644.036V310.012H446.058V268Z" fill="#4DE6FF" style="mix-blend-mode:multiply"/>
<path fill-rule="evenodd" clip-rule="evenodd" d="M85.0874 402H-2.90283V420H85.0874V402ZM107.085 446.667V402H213.075L168.408 446.667H107.085ZM1163.33 446.667H1071.48L1051.41 426.599L1076.01 402H1208L1163.33 446.667ZM1951.27 446.667H1828.62L1783.95 402H1995.93L1951.27 446.667ZM1352.99 402H1660.96V420H1352.99V402ZM877.019 402H983.01V420H895.019L877.019 402ZM336.071 402H725.025L743.025 420H336.071V402Z" fill="#4DE6FF" style="mix-blend-mode:multiply"/>
<path fill-rule="evenodd" clip-rule="evenodd" d="M52.9902 351.961V312.667H-34.9153V268H52.9902V131.985H184.975V197.978L74.9877 307.966V439.951L75.0725 439.866V402H112.939L202.272 312.667H138.411L183.077 268H246.939L272.966 241.973V43.9951H-35V65.9608H272.966V110.627H-35V351.961H52.9902ZM391.964 131.985H611.939V43.9951H303.973L303.973 65.9608H611.939V110.627H303.973L303.973 351.961H710.928L622.938 263.971H391.964V131.985ZM413.961 241.973H611.939V153.983H413.961V241.973ZM862.922 110.627L862.922 219.975L753.574 110.627H642.947L642.947 131.985L778.962 268H842.992L863.007 288.015V268H950.913V43.9951H862.922L862.922 65.9608H950.912V110.627H862.922ZM862.922 351.961L823.628 312.667H950.913V351.961H862.922ZM642.947 65.9608H708.907L642.947 0L642.947 65.9608ZM1289.89 65.9608L1289.89 43.9951H981.92L981.92 65.9608H1289.89ZM1289.89 110.627H981.92L981.92 241.973H1135.9L1109.88 268H1241.86L1320.89 188.968V351.961H1628.86V312.667H1540.95V268H1628.86L1628.86 110.627H1320.89L1320.89 153.983H1069.91V131.985H1289.89L1289.89 110.627ZM1019.32 358.56L1067.86 310.012H1135.99L1133.33 312.667H1197.19L1107.86 402H1062.76L1019.32 358.56ZM1320.89 65.9608H1628.86L1628.86 43.9951H1320.89L1320.89 65.9608ZM1540.87 263.971H1408.88V131.985H1540.87V263.971ZM1659.87 110.627L1659.87 241.973L1685.89 268H1749.92L1794.59 312.667H1730.56L1819.89 402H1895.8L1967.83 329.963V312.667H1921.27L1965.93 268H1967.83V197.978L1857.84 307.966L1747.86 197.978V131.985H1967.83L1967.83 110.627H1659.87ZM1659.87 65.9608H1967.83L1967.83 43.9951H1659.87L1659.87 65.9608ZM392.048 312.667H304.058V268H392.048V312.667ZM1320.98 268V312.667H1408.97V268H1320.98ZM414.046 268H612.024V310.012H414.046V268Z" fill="#4DE6FF" style="mix-blend-mode:multiply"/>
</g>
</svg>
