<svg width="199" height="146" viewBox="0 0 199 146" fill="none" xmlns="http://www.w3.org/2000/svg">
<mask id="path-1-inside-1_33_59" fill="white">
<path fill-rule="evenodd" clip-rule="evenodd" d="M0 22.6814V119.537H198.012V0H23.2911L0 22.6814Z"/>
</mask>
<path fill-rule="evenodd" clip-rule="evenodd" d="M0 22.6814V119.537H198.012V0H23.2911L0 22.6814Z" fill="#0B190A"/>
<path d="M0 119.537H-2.5V122.037H0V119.537ZM0 22.6814L-1.74417 20.8903L-2.5 21.6264V22.6814H0ZM198.012 119.537V122.037H200.512V119.537H198.012ZM198.012 0H200.512V-2.5H198.012V0ZM23.2911 0V-2.5H22.2749L21.5469 -1.79105L23.2911 0ZM2.5 119.537V22.6814H-2.5V119.537H2.5ZM198.012 117.037H0V122.037H198.012V117.037ZM195.512 0V119.537H200.512V0H195.512ZM23.2911 2.5H198.012V-2.5H23.2911V2.5ZM21.5469 -1.79105L-1.74417 20.8903L1.74417 24.4725L25.0352 1.79105L21.5469 -1.79105Z" fill="#9CE79A" mask="url(#path-1-inside-1_33_59)"/>
<path fill-rule="evenodd" clip-rule="evenodd" d="M149.65 119.537H0V146H124.523L124.1 145.588L149.473 119.538L149.65 119.71V119.537Z" fill="#9CE79A"/>
</svg>
